<?xml version="1.0" encoding="UTF-8" standalone="no"?>
<svg
   xmlns:dc="http://purl.org/dc/elements/1.1/"
   xmlns:cc="http://creativecommons.org/ns#"
   xmlns:rdf="http://www.w3.org/1999/02/22-rdf-syntax-ns#"
   xmlns:svg="http://www.w3.org/2000/svg"
   xmlns="http://www.w3.org/2000/svg"
   xmlns:xlink="http://www.w3.org/1999/xlink"
   xmlns:sodipodi="http://sodipodi.sourceforge.net/DTD/sodipodi-0.dtd"
   xmlns:inkscape="http://www.inkscape.org/namespaces/inkscape"
   version="1.1"
   id="svgGraspLogo"
   viewBox="0 0 1500 800"
   style="shape-rendering:crispEdges"
   enable-background="new"
   sodipodi:docname="GRASPLogo3_cleaned.svg"
   inkscape:version="0.92.3 (2405546, 2018-03-11)">
  <metadata
     id="metadata1629">
    <rdf:RDF>
      <cc:Work
         rdf:about="">
        <dc:format>image/svg+xml</dc:format>
        <dc:type
           rdf:resource="http://purl.org/dc/dcmitype/StillImage" />
        <dc:title />
      </cc:Work>
    </rdf:RDF>
  </metadata>
  <defs
     id="defs1627">
    <inkscape:path-effect
       effect="bspline"
       id="path-effect6949"
       is_visible="true"
       weight="33.333333"
       steps="2"
       helper_size="0"
       apply_no_weight="true"
       apply_with_weight="true"
       only_selected="false" />
    <inkscape:path-effect
       effect="bspline"
       id="path-effect6944"
       is_visible="true"
       weight="33.333333"
       steps="2"
       helper_size="0"
       apply_no_weight="true"
       apply_with_weight="true"
       only_selected="false" />
  </defs>
  <sodipodi:namedview
     pagecolor="#ffffff"
     bordercolor="#666666"
     borderopacity="1"
     objecttolerance="10"
     gridtolerance="10"
     guidetolerance="10"
     inkscape:pageopacity="0"
     inkscape:pageshadow="2"
     inkscape:window-width="1920"
     inkscape:window-height="1137"
     id="namedview1625"
     showgrid="false"
     inkscape:zoom="2.0642517"
     inkscape:cx="713.10123"
     inkscape:cy="403.34691"
     inkscape:window-x="1192"
     inkscape:window-y="545"
     inkscape:window-maximized="1"
     inkscape:current-layer="svgGraspLogo" />
  <path
     d="M 363.09547,302.26099 H 1063.107 v 188.7842 H 363.09547 Z"
     id="pathRectBackground"
     style="display:inline;fill:#055eaa;stroke-width:8.0861845"
     inkscape:connector-curvature="0" />
  <path
     d="m 754.45024,327.49669 c 6.59426,3.84303 11.45236,6.67595 17.87546,13.25319 6.4233,6.57731 10.3234,14.62799 12.8123,21.6229 2.4974,6.98737 0.6225,13.32702 0.862,22.18277 0.231,8.86331 0.6948,17.98759 -3,28.81046 -3.6863,10.83041 -8.6774,18.08317 -18,25.83007 -9,6.95425 -17,12.91503 -37,16.88889 -14.7537,2.30888 -25,1.98692 -42,0 -2.50603,2.39241 -7.15948,10.9023 1,12.91503 12,0 24,2 37,0 15,-1.98693 19.66082,-3.21141 28,-5.96078 8.33904,-2.74175 14.9774,-6.75548 23,-12.91504 8.0396,-6.15948 14.1597,-14.07894 18,-21.85621 3.8488,-7.76962 6.9994,-13.22983 8,-20.86274 0.9922,-7.63301 0.3593,-14.07132 0,-21.85621 -0.3591,-7.78481 -0.417,-16.29367 -3,-23.84314 -2.35871,-7.14422 -3.86127,-12.5296 -8.329,-18.82938 -4.70835,-6.58226 -10.4349,-12.54439 -17.0117,-17.71151 -6.4061,-4.9291 -10.39925,-8.09665 -15.6593,-8.165 -5.25994,-0.0755 -6,3.97386 -6,7.94772 -1.07767,2.62029 -3.14411,-1.30171 3.45024,2.54898 z"
     id="pathSwoosh"
     style="display:none;fill:#66c6dd;stroke-width:8.05971622"
     inkscape:connector-curvature="0" />
  <path
     d="M 387.39421,331.63281 H 506.20249 V 439.2736 H 387.40278 Z"
     id="pathRectG"
     class="letterRect"
     style="display:inline;fill:#ffffff;stroke-width:8.0861845"
     inkscape:connector-curvature="0" />
  <path
     d="m 520.58845,332.35909 h 118.79967 v 107.6408 H 520.59697 Z"
     id="pathRectR"
     class="letterRect"
     style="display:inline;fill:#ffffff;stroke-width:8.0861845"
     inkscape:connector-curvature="0" />
  <path
     d="M 784.0603,333.08538 H 902.86 v 107.6408 H 784.0603 Z"
     id="pathRectS"
     class="letterRect"
     style="display:inline;fill:#ffffff;stroke-width:8.0861845"
     inkscape:connector-curvature="0" />
  <path
     style="display:inline;opacity:1;fill:#ffffff;fill-opacity:1;stroke:none;stroke-width:1.8060286;stroke-opacity:1"
     d="M 772,387 A 57.987948,54.842357 0 0 1 714.01205,441.84236 57.987948,54.842357 0 0 1 656.0241,387 57.987948,54.842357 0 0 1 714.01205,332.15765 57.987948,54.842357 0 0 1 772,387 Z"
     id="pathCircleA"
     inkscape:connector-curvature="0" />
  <path
     style="display:inline;fill:#ffffff;stroke-width:8.08618546"
     id="pathRectP"
     class="letterRect"
     d="m 920,332.35919 h 118.7997 V 440 H 920 Z"
     inkscape:connector-curvature="0" />
  <g
     id="gAnalysis"
     style="display:inline;opacity:0">
    <circle
       id="pathAnalysisYellowCircle"
       class="analysis"
       r="50.061893"
       cy="385.64093"
       cx="445.6348"
       style="display:inline;fill:#fbbd5e;stroke-width:0.19860944" />
    <path
       id="pathAnalysisBlueDottedCircle"
       class="analysis"
       d="m 442.50589,425.84663 v -3.12889 c 0.93863,0 2.03376,0 2.97239,-0.1565 l 0.1565,3.12889 c -0.93882,0.1565 -2.03376,0.1565 -3.12889,0.1565 z m -3.12889,0 c -1.09514,0 -2.19027,-0.1565 -3.2854,-0.31281 l 0.46931,-3.12889 c 0.93863,0.1565 2.03376,0.31281 2.97239,0.31281 z m 9.69949,-0.46931 -0.46932,-3.12889 c 0.93863,-0.15651 2.03376,-0.31281 2.97239,-0.62582 l 0.62582,3.12889 c -1.09513,0.31301 -2.03376,0.46951 -3.12889,0.62582 z m -16.11378,-0.46931 c -1.09514,-0.31281 -2.03376,-0.46932 -3.1289,-0.78213 l 0.93863,-2.97239 c 0.93863,0.31281 1.87726,0.62582 2.97239,0.78213 z m 22.37136,-0.93863 -0.93862,-2.97239 c 0.93862,-0.31281 1.87725,-0.62582 2.81588,-0.93863 l 1.09513,2.97239 c -0.93863,0.31281 -1.87725,0.62582 -2.97239,0.93863 z m -28.62895,-0.93863 c -0.93863,-0.46932 -2.03376,-0.78213 -2.97239,-1.25164 l 1.40794,-2.81588 c 0.93863,0.46931 1.87726,0.78212 2.81589,1.25163 z m 34.73024,-1.40794 -1.40795,-2.81589 c 0.93863,-0.46931 1.72095,-0.93863 2.65958,-1.40794 l 1.56445,2.65958 c -0.93863,0.62562 -1.87726,1.09493 -2.81608,1.56425 z m -40.51871,-1.40795 c -0.93863,-0.46931 -1.87726,-1.09513 -2.81589,-1.72095 l 1.72095,-2.65958 c 0.78213,0.62582 1.72095,1.09514 2.50308,1.56445 z m 45.99437,-1.87745 -1.72095,-2.50308 c 0.78212,-0.62581 1.72095,-1.09513 2.34657,-1.72095 l 2.03376,2.50308 c -0.78213,0.46951 -1.72075,1.09513 -2.65938,1.72095 z m -51.46984,-1.87726 c -0.78212,-0.62582 -1.72095,-1.40794 -2.50307,-2.19026 l 2.19026,-2.34657 c 0.78213,0.62582 1.56445,1.40794 2.34657,2.03376 z m 56.63249,-2.19026 -2.19026,-2.19027 c 0.78212,-0.62582 1.40794,-1.40794 2.19026,-2.19026 l 2.34657,2.19026 c -0.78232,0.78233 -1.56444,1.56445 -2.34657,2.19027 z m -61.32583,-2.19007 c -0.78212,-0.78212 -1.40794,-1.56445 -2.19026,-2.50307 l 2.50307,-2.03376 c 0.62582,0.78212 1.25164,1.56444 2.03376,2.34657 z m 65.70616,-2.50327 -2.50307,-1.87726 c 0.62582,-0.78212 1.25163,-1.56445 1.72095,-2.34657 l 2.65958,1.72095 c -0.62602,0.78213 -1.25164,1.72075 -1.87746,2.50288 z m -69.77368,-2.50308 c -0.62582,-0.93863 -1.25164,-1.87725 -1.72095,-2.81588 l 2.65958,-1.56445 c 0.46931,0.93863 1.09513,1.72095 1.56445,2.50308 z m 73.37189,-2.81588 -2.65958,-1.56445 c 0.46931,-0.93863 0.93863,-1.72095 1.40794,-2.65958 l 2.81589,1.40795 c -0.46912,0.93882 -0.93843,1.87745 -1.56425,2.81608 z m -76.65709,-2.81608 c -0.46931,-0.93863 -0.93863,-2.03377 -1.25163,-2.97239 l 2.81588,-1.09514 c 0.31281,0.93863 0.78212,1.87726 1.25164,2.81589 z m 79.47297,-3.1287 -2.97238,-1.09513 c 0.31281,-0.93863 0.62581,-1.87726 0.93862,-2.81589 l 2.97239,0.93863 c -0.1563,0.93863 -0.46931,2.03356 -0.93863,2.97239 z m -81.81974,-2.97259 c -0.31281,-1.09513 -0.62581,-2.03376 -0.78212,-3.12889 l 2.97239,-0.62582 c 0.1565,0.93863 0.46931,1.87726 0.78212,2.97239 z m 83.85351,-3.12869 -2.97239,-0.62582 c 0.1565,-0.93863 0.46931,-2.03376 0.62581,-2.97239 l 3.1289,0.46932 c -0.46932,0.93862 -0.62582,2.03376 -0.78232,3.12889 z m -85.26145,-3.12889 c -0.1565,-1.09514 -0.31281,-2.19027 -0.46931,-3.2854 l 3.12889,-0.15651 c 0,0.93863 0.1565,2.03376 0.31281,2.97239 z m 86.20007,-3.2854 -3.12889,-0.15651 c 0,-0.93862 0.1565,-2.03376 0.1565,-2.97238 v -0.15651 h 3.1289 v 0.15651 c -0.15651,0.93882 -0.15651,2.03376 -0.15651,3.12889 z m -86.04356,-3.12889 h -0.62582 c 0,-1.09514 0,-2.19027 0.1565,-3.1289 l 3.12889,0.15651 c 0,0.93862 -0.1565,1.87725 -0.1565,2.97239 z m 82.91487,-3.44171 c -0.15651,-0.93863 -0.15651,-2.03376 -0.31281,-2.97239 l 3.12889,-0.46931 c 0.15651,1.09513 0.31281,2.19026 0.31281,3.2854 z m -80.09899,-2.65958 -3.12889,-0.46931 c 0.1565,-1.09513 0.31281,-2.19027 0.62582,-3.12889 l 3.12889,0.62581 c -0.31281,1.09514 -0.46932,2.03376 -0.62582,2.97239 z m 79.16016,-3.2852 c -0.1565,-0.93862 -0.46931,-1.87725 -0.78212,-2.97238 l 2.97239,-0.93863 c 0.31281,1.09513 0.62582,2.03376 0.78212,3.12889 z m -77.75222,-2.50307 -2.97239,-0.93863 c 0.31281,-1.09513 0.62582,-2.03376 1.09514,-3.12889 l 2.97238,1.09513 c -0.46931,1.09493 -0.78212,2.03376 -1.09513,2.97239 z m 75.87497,-3.12889 c -0.31281,-0.93863 -0.78213,-1.87726 -1.25164,-2.81589 l 2.81588,-1.40794 c 0.46932,0.93863 0.93863,2.03376 1.25164,2.97239 z m -73.6847,-2.50308 -2.81589,-1.40794 c 0.46932,-0.93863 0.93863,-1.87726 1.56445,-2.81589 l 2.65958,1.56445 c -0.62582,0.78213 -1.09533,1.72075 -1.40814,2.65938 z m 71.02512,-2.97239 c -0.46932,-0.93863 -1.09514,-1.72095 -1.56445,-2.50307 l 2.50307,-1.72095 c 0.62582,0.93863 1.25164,1.87725 1.72096,2.65958 z m -68.05273,-2.19026 -2.65958,-1.72095 c 0.62582,-0.93863 1.25163,-1.72095 1.87725,-2.65958 l 2.50308,1.87725 c -0.62562,0.78233 -1.25144,1.56465 -1.72075,2.50328 z m 64.76753,-2.65958 c -0.62582,-0.78212 -1.25164,-1.56445 -2.03376,-2.34657 l 2.34657,-2.19027 c 0.78212,0.78213 1.40794,1.56445 2.19026,2.50308 z m -61.01282,-2.19007 -2.34677,-2.19026 c 0.78212,-0.78213 1.56445,-1.56445 2.34657,-2.34657 l 2.19026,2.34657 c -0.78212,0.78212 -1.56424,1.56444 -2.19006,2.19026 z m 56.78879,-2.34677 c -0.78212,-0.62581 -1.56444,-1.40794 -2.34657,-2.03376 l 1.87726,-2.50307 c 0.78212,0.62582 1.72095,1.40794 2.50307,2.03376 z m -52.40846,-1.72075 -2.03376,-2.50307 c 0.78212,-0.62582 1.72095,-1.25164 2.65958,-1.87726 l 1.72095,2.50307 c -0.78232,0.62562 -1.56445,1.25144 -2.34677,1.87726 z m 47.71512,-1.87745 c -0.78212,-0.62582 -1.72095,-1.09514 -2.50307,-1.56445 l 1.56444,-2.65958 c 0.93863,0.46931 1.87726,1.09513 2.81589,1.72095 z m -42.70897,-1.56445 -1.56445,-2.65958 c 0.93863,-0.46931 1.87726,-1.09513 2.81589,-1.56445 l 1.40794,2.81589 c -0.93843,0.46951 -1.87706,0.93883 -2.65938,1.40814 z m 37.54652,-1.56445 c -0.93863,-0.31281 -1.87726,-0.78212 -2.81589,-1.09513 l 1.09514,-2.97239 c 0.93862,0.46932 2.03376,0.78213 2.97238,1.25164 z m -32.22736,-0.93863 -1.09514,-2.97238 c 0.93863,-0.46932 2.03376,-0.78213 3.1289,-1.09514 l 0.93863,2.97239 c -1.09514,0.31301 -2.03377,0.62582 -2.97239,1.09513 z m 26.59539,-1.09513 c -0.93863,-0.31281 -1.87726,-0.62582 -2.97239,-0.78212 l 0.62582,-3.12889 c 1.09513,0.1565 2.03376,0.46931 3.12889,0.78212 z m -20.80692,-0.78212 -0.78213,-2.97239 c 1.09514,-0.31281 2.19027,-0.46931 3.1289,-0.62582 l 0.46931,3.12889 c -0.93882,0 -1.87745,0.31281 -2.81608,0.46932 z m 14.86194,-0.62582 c -0.93863,-0.1565 -2.03376,-0.31281 -2.97239,-0.31281 l 0.15651,-3.12889 c 1.09513,0 2.19026,0.1565 3.2854,0.31281 z m -8.91716,-0.31281 -0.31281,-3.12889 c 1.09513,-0.15651 2.19026,-0.15651 3.28539,-0.15651 v 3.1289 c -0.93882,0.1565 -2.03396,0.1565 -2.97258,0.1565 z"
       style="display:inline;fill:#183651;stroke-width:0.19860944"
       inkscape:connector-curvature="0" />
    <g
       id="gAnalysisBarChart"
       class="analysis"
       style="display:inline">
      <path
         style="display:inline;visibility:hidden;fill:#4fbf9f;stroke-width:0.19860944;shape-rendering:crispEdges"
         d="m 437.49974,379.07014 h 30.0369 L 486.31,392.99365 v -13.92351 h 7.82203 v -41.92665 h -56.63229 z"
         id="pathAnalysisBarChartGreenBox"
         inkscape:connector-curvature="0" />
      <path
         style="display:inline;visibility:hidden;fill:#183651;stroke-width:0.19860944"
         d="m 486.31,394.5581 c -0.31281,0 -0.62582,-0.1565 -0.93863,-0.31281 l -18.30385,-13.4542 h -29.56778 c -0.93863,0 -1.56445,-0.62582 -1.56445,-1.56445 v -42.08315 c 0,-0.93863 0.62582,-1.56445 1.56445,-1.56445 h 56.63249 c 0.93863,0 1.56445,0.62582 1.56445,1.56445 v 41.92685 c 0,0.93862 -0.62582,1.56444 -1.56445,1.56444 h -6.25779 v 12.20257 c 0,0.62582 -0.31281,1.09513 -0.78212,1.40794 -0.31301,0.15631 -0.46951,0.31281 -0.78232,0.31281 z m -47.24601,-17.05221 h 28.47265 c 0.31281,0 0.62582,0.1565 0.93863,0.31281 l 16.27008,12.04606 v -10.63812 c 0,-0.93863 0.62582,-1.56444 1.56445,-1.56444 h 6.25778 v -38.95427 h -53.50359 z"
         id="pathAnalysisBarChartOuterBox"
         inkscape:connector-curvature="0" />
      <path
         style="display:inline;visibility:hidden;fill:#ffffff;stroke-width:0.19860944"
         d="m 443.75733,372.81255 v -29.41128 h 44.11691 v 29.41128 h -7.82203 v 7.66573 l -10.32531,-7.66573 z"
         id="pathAnalysisBarChartWhiteCalloutBox"
         inkscape:connector-curvature="0" />
      <path
         style="display:inline;visibility:hidden;fill:#f06151;stroke-width:0.19860944"
         d="m 451.26654,347.62509 h 5.94478 v 18.61666 h -5.94478 z"
         id="pathAnalysisBarChartRedRect"
         inkscape:connector-curvature="0" />
      <rect
         x="462.84351"
         y="352.31845"
         style="display:inline;visibility:hidden;fill:#fbbd5e;stroke-width:0.19860944"
         width="5.9447775"
         height="14.07982"
         id="pathAnalysisBarChartYellowRect" />
      <rect
         x="474.42026"
         y="358.41971"
         style="display:inline;visibility:hidden;fill:#4fbf9f;stroke-width:0.19860944"
         width="5.9447775"
         height="7.9785385"
         id="pathAnalysisBarChartGreenRect" />
      <rect
         x="447.98135"
         y="366.39825"
         style="display:inline;visibility:hidden;fill:#e1e6e7;stroke-width:0.19860944"
         width="35.512558"
         height="2.5030746"
         id="pathAnalysisBarChartHorizontalRect" />
    </g>
    <g
       id="gAnalysisPieChart"
       class="analysis"
       style="display:inline">
      <circle
         style="display:inline;fill:#ffffff;stroke-width:0.19860944"
         cx="433.27573"
         cy="397.99982"
         r="36.138378"
         id="pathAnalysisPieChartWhiteCircle" />
      <path
         style="display:inline;fill:#183651;stroke-width:0.19860944"
         d="m 433.27571,435.70263 c -20.80692,0 -37.70282,-16.89591 -37.70282,-37.70283 0,-20.80692 16.8959,-37.70282 37.70282,-37.70282 20.80693,0 37.70283,16.8959 37.70283,37.70282 0,20.80692 -17.05241,37.70283 -37.70283,37.70283 z m 0,-72.12025 c -19.08597,0 -34.57393,15.48796 -34.57393,34.57393 0,19.08597 15.48796,34.57393 34.57393,34.57393 19.08597,0 34.57394,-15.48796 34.57394,-34.57393 0,-19.08597 -15.64427,-34.57393 -34.57394,-34.57393 z"
         id="pathAnalysisPieChartBlueCircle"
         inkscape:connector-curvature="0" />
      <path
         style="display:inline;fill:#e1e6e7;stroke-width:0.19860944"
         d="m 433.27571,368.27571 v 0 c -16.42659,0 -29.88059,13.45421 -29.88059,29.8806 0,8.29154 3.2854,15.64426 8.76086,21.11973 l 21.11973,-21.11973 z"
         id="pathAnalysisPieChartGrayPie"
         inkscape:connector-curvature="0" />
      <path
         style="display:inline;fill:#fbbd5e;stroke-width:0.19860944"
         d="M 454.23914,419.11973 C 459.7146,413.64427 463,406.29135 463,398 h -29.72429 z"
         id="pathAnalysisPieChartYellowPie"
         inkscape:connector-curvature="0" />
      <path
         style="display:inline;fill:#f06151;stroke-width:0.19860944"
         d="m 462.9998,397.9998 v 0 c 0,-16.42659 -13.4542,-29.88059 -29.88059,-29.88059 v 29.88059 z"
         id="pathAnalysisPieChartRedPie"
         inkscape:connector-curvature="0" />
      <path
         style="display:inline;fill:#2ca0da;stroke-width:0.19860944"
         d="m 433.27571,427.88039 c 8.29155,0 15.64427,-3.28539 21.11974,-8.76086 l -21.11974,-21.11973 -21.11992,21.11993 c 5.31915,5.47547 12.82838,8.76066 21.11992,8.76066 z"
         id="pathAnalysisPieChartBluePie"
         inkscape:connector-curvature="0" />
    </g>
  </g>
  <g
     id="gMap"
     style="display:inline;opacity:0">
    <circle
       id="pathMapBlueCircle"
       r="51"
       cy="386.26044"
       cx="579.72699"
       style="display:inline;fill:#4786c6;stroke-width:0.19921875" />
    <g
       id="gMapFoldout"
       style="display:inline">
      <polygon
         id="pathMapFoldoutRect"
         points="322.616,160.716 455.864,201.004 455.864,484.104 322.616,443.836 189.392,484.104 56.144,443.836 56.144,160.716 189.392,201.004 "
         style="fill:#fdfeff"
         transform="matrix(0.19921875,0,0,0.19921875,528.72702,335.26044)" />
      <polygon
         id="pathMapFoldoutSmallRect"
         points="189.392,222.048 138.468,206.652 189.388,222.048 "
         style="fill:#fdfeff"
         transform="matrix(0.19921875,0,0,0.19921875,528.72702,335.26044)" />
      <polygon
         id="pathMapFoldoutSmallPoly"
         points="78.476,239.568 78.476,188.516 138.468,206.652 78.468,188.512 78.468,239.56 "
         style="fill:#fdfeff"
         transform="matrix(0.19921875,0,0,0.19921875,528.72702,335.26044)" />
      <polygon
         id="pathMapFoldoutVerticalPart"
         points="322.62,181.76 322.62,181.764 375.688,197.808 428.096,213.652 433.532,215.296 433.532,351.628 433.532,373.364 433.532,456.308 433.54,456.312 433.54,215.292 "
         style="fill:#fdfeff"
         transform="matrix(0.19921875,0,0,0.19921875,528.72702,335.26044)" />
      <polygon
         id="pathMapFoldoutSmallTriangleOrange"
         points="322.62,181.764 322.62,220.496 375.688,197.808 "
         style="fill:#f7cfa3"
         transform="matrix(0.19921875,0,0,0.19921875,528.72702,335.26044)" />
      <polygon
         id="pathMapFoldoutVerticalPartOrange"
         points="189.396,351.128 189.396,222.048 189.392,222.048 189.388,222.048 138.468,206.652 78.476,188.516 78.476,239.568 177.416,362.1 188.436,352.076 "
         style="fill:#f7cfa3"
         transform="matrix(0.19921875,0,0,0.19921875,528.72702,335.26044)" />
      <polygon
         style="fill:#f0b97c"
         points="322.62,181.764 322.616,181.764 189.396,222.048 189.396,351.128 321.4,221.016 322.62,220.496 "
         id="pathMapFoldoutVerticalPartCenter"
         transform="matrix(0.19921875,0,0,0.19921875,528.72702,335.26044)" />
      <polygon
         style="fill:#fdfeff"
         points="78.468,429.54 99.156,435.792 99.16,435.784 78.476,429.536 78.476,271.764 78.468,271.752 "
         id="pathMapFoldoutVerticalRectYellow"
         transform="matrix(0.19921875,0,0,0.19921875,528.72702,335.26044)" />
      <polygon
         id="pathMapFoldoutYellowTriangle"
         points="322.62,272.2 322.88,272.204 433.532,351.628 433.532,215.296 428.096,213.652 323.376,254.556 322.62,255.284 "
         style="fill:#f7cfa3"
         transform="matrix(0.19921875,0,0,0.19921875,528.72702,335.26044)" />
      <polygon
         id="pathMapFoldoutVerticalRect1"
         points="99.16,435.784 162.092,373.132 78.476,271.764 78.476,429.536 "
         style="fill:#f7cfa3"
         transform="matrix(0.19921875,0,0,0.19921875,528.72702,335.26044)" />
      <polygon
         style="fill:#f0b97c"
         points="322.62,272.2 322.62,255.284 305.58,271.764 "
         id="pathMapFoldoutSmallPoly1"
         transform="matrix(0.19921875,0,0,0.19921875,528.72702,335.26044)" />
      <polygon
         style="fill:#fdfeff"
         points="322.62,422.78 189.396,463.044 137.952,447.504 137.944,447.512 189.388,463.06 322.612,422.792 433.532,456.312 433.532,456.308 "
         id="pathMapFoldoutSmallGreen"
         transform="matrix(0.19921875,0,0,0.19921875,528.72702,335.26044)" />
      <polygon
         id="pathMapFoldoutSmallGreen2"
         points="433.532,373.364 322.88,294.096 322.62,294.064 322.62,422.78 433.532,456.308 "
         style="fill:#7ec359"
         transform="matrix(0.19921875,0,0,0.19921875,528.72702,335.26044)" />
      <polygon
         id="pathMapFoldoutSmallGreen1"
         points="189.396,393.552 137.952,447.504 189.396,463.044 "
         style="fill:#7ec359"
         transform="matrix(0.19921875,0,0,0.19921875,528.72702,335.26044)" />
      <polygon
         style="fill:#6bbe49"
         points="322.62,294.064 288.28,289.856 189.396,393.552 189.396,463.044 322.62,422.78 "
         id="pathMapFoldoutVerticalGreen1"
         transform="matrix(0.19921875,0,0,0.19921875,528.72702,335.26044)" />
      <rect
         id="pathMapFoldoutSmallWhite"
         height="8.0723438"
         width="0.0015937501"
         style="fill:#fdfeff;stroke-width:0.19921875"
         y="419.21121"
         x="552.34399" />
      <rect
         id="pathMapFoldoutSmallWhite1"
         height="6.414844"
         width="0.002390625"
         style="fill:#fdfeff;stroke-width:0.19921875"
         y="382.98608"
         x="544.35931" />
      <polygon
         id="pathMapFoldoutVerticalYellow"
         points="188.436,352.076 177.416,362.1 78.476,239.568 78.476,271.764 162.092,373.132 99.16,435.784 137.952,447.504 189.396,393.552 189.396,351.128 "
         style="fill:#fdfeff"
         transform="matrix(0.19921875,0,0,0.19921875,528.72702,335.26044)" />
      <polygon
         id="pathMapFoldoutDiagWhite1"
         points="323.376,254.556 428.096,213.652 375.688,197.808 322.62,220.496 322.62,255.284 "
         style="fill:#fdfeff"
         transform="matrix(0.19921875,0,0,0.19921875,528.72702,335.26044)" />
      <polygon
         id="pathMapFoldoutDiagWhite"
         points="322.62,294.064 322.88,294.096 433.532,373.364 433.532,351.628 322.88,272.204 322.62,272.2 "
         style="fill:#fdfeff"
         transform="matrix(0.19921875,0,0,0.19921875,528.72702,335.26044)" />
      <polygon
         style="fill:#e8e7e8"
         points="322.62,255.284 322.62,220.496 321.4,221.016 189.396,351.128 189.396,393.552 288.28,289.856 322.62,294.064 322.62,272.2 305.58,271.764 "
         id="pathMapFoldoutDiagWhite2"
         transform="matrix(0.19921875,0,0,0.19921875,528.72702,335.26044)" />
    </g>
    <g
       id="gMapMarker"
       style="display:inline">
      <path
         style="display:inline;fill:#f1592f;stroke-width:0.19921875"
         d="m 591.03707,358.30846 c 0,8.98715 -16.27299,31.7985 -16.27299,31.7985 0,0 -16.27298,-22.81135 -16.27298,-31.7985 0,-8.98716 7.28583,-16.27299 16.27298,-16.27299 8.98716,0 16.27299,7.28583 16.27299,16.27299 z"
         id="pathMapMarkerOrangeBalloon"
         inkscape:connector-curvature="0" />
      <circle
         style="display:inline;fill:#fdfeff;stroke-width:0.19921875"
         cx="574.7641"
         cy="358.30844"
         r="9.1513128"
         id="pathMapMarkerWhiteCircle" />
      <g
         style="display:inline"
         id="pathMapMarkerWhiteCircle1"
         transform="matrix(0.19921875,0,0,0.19921875,528.72702,335.26044)" />
    </g>
  </g>
  <g
     id="gEpidem"
     style="display:inline;opacity:0">
    <circle
       id="pathEpidemPinkCircle"
       r="51.061893"
       cy="388.02393"
       cx="843.32849"
       style="display:inline;fill:#ffaaaa;fill-opacity:1;stroke-width:0.20257673" />
    <path
       id="pathEpidemYelloMagGlass"
       d="m 885.06215,377.39577 c 0.0126,-12.32625 -9.97025,-22.3271 -22.29506,-22.33969 -12.32481,-0.0126 -22.3271,9.97025 -22.33969,22.29506 -0.01,10.18509 6.87654,19.08422 16.73811,21.63113 v 24.44307 c 0,3.08112 2.49814,5.57942 5.57942,5.57942 3.08129,0 5.57943,-2.49814 5.57943,-5.57942 v -24.44307 c 9.84722,-2.53862 16.73222,-11.41687 16.73779,-21.5865 z"
       style="display:inline;fill:#ffddba;stroke-width:0.15937114"
       inkscape:connector-curvature="0" />
    <circle
       id="pathEpidemBlueCircle"
       r="16.738113"
       cy="377.39575"
       cx="862.74475"
       style="display:inline;fill:#3689c9;stroke-width:0.15937114" />
    <g
       transform="matrix(0.15937114,0,0,0.15937114,803.46413,350.89378)"
       id="gEpidemMagGlassJoint"
       style="display:inline;opacity:0.13999999">
      <path
         id="path1972"
         d="m 371.966,306.325 c -11.815,-0.044 -23.578,-1.584 -35.009,-4.586 v 8.752 c 22.939,6.118 47.078,6.118 70.017,0 v -8.752 c -11.43,3.002 -23.193,4.542 -35.008,4.586 z"
         inkscape:connector-curvature="0" />
    </g>
    <g
       style="display:inline"
       transform="matrix(0.15937114,0,0,0.15937114,803.46413,350.89378)"
       id="gEpidemBlueCircleBugs">
      <circle
         id="circle1976"
         r="17.504"
         cy="157.539"
         cx="140.034"
         style="fill:#3689c9" />
      <circle
         id="circle1978"
         r="17.504"
         cy="52.513"
         cx="201.299"
         style="fill:#3689c9" />
      <circle
         id="circle1980"
         r="17.504"
         cy="490.12"
         cx="148.786"
         style="fill:#3689c9" />
    </g>
    <g
       style="display:inline"
       transform="matrix(0.15937114,0,0,0.15937114,803.46413,350.89378)"
       id="gEpidemBigBlueBug">
      <rect
         id="rect1986"
         height="8.7519999"
         width="17.504"
         style="fill:#76bdf6"
         y="218.80299"
         x="398.22198" />
      <path
         id="pathEpidemBigBlueBug"
         d="m 48.137,39.385 c 7.247,0 13.128,-5.881 13.128,-13.128 v -8.752 c 0,-2.416 1.96,-4.376 4.376,-4.376 H 100.65 V 4.376 H 65.641 c -7.247,0 -13.128,5.881 -13.128,13.128 v 8.752 c 0,2.416 -1.96,4.376 -4.376,4.376 -7.247,0 -13.128,5.881 -13.128,13.128 V 57.335 C 15.132,59.515 0.061,76.275 0,96.274 v 35.009 c 0.228,21.749 18.038,39.201 39.796,38.973 18.712,-0.193 34.711,-13.531 38.256,-31.91 0.481,-2.319 0.718,-4.691 0.718,-7.063 V 96.274 c 0,-2.372 -0.236,-4.744 -0.718,-7.063 C 74.901,72.188 60.968,59.235 43.761,57.336 V 43.761 c 0,-2.416 1.96,-4.376 4.376,-4.376 z"
         style="fill:#76bdf6"
         inkscape:connector-curvature="0" />
      <rect
         id="rect1988"
         height="8.7519999"
         width="17.504"
         style="fill:#76bdf6"
         y="148.786"
         x="415.72699" />
      <rect
         id="rect1990"
         height="8.7519999"
         width="17.504"
         style="display:none;fill:#76bdf6"
         y="131.282"
         x="345.70901" />
    </g>
    <path
       id="pathEpidemBigRedBug"
       d="m 839.66018,407.38479 h 3.55685 v -1.39481 h -3.55685 c -0.0279,-0.24129 -0.0725,-0.47987 -0.13243,-0.71415 -0.20639,-0.90666 -0.61374,-1.75611 -1.19258,-2.48427 l 2.58596,-2.58468 -0.98762,-0.98763 -2.58469,2.58596 c -1.10045,-0.89694 -2.47583,-1.38924 -3.89582,-1.39482 h -0.69741 v -3.48704 h -1.39482 v 3.48704 h -5.57942 v -3.48704 h -1.39482 v 3.48704 h -5.5791 v -3.48704 h -1.39482 v 3.48704 h -0.69741 c -1.41999,0.006 -2.79521,0.49804 -3.89582,1.39482 l -2.58469,-2.58596 -0.98762,0.98763 2.58596,2.58468 c -0.73646,0.91925 -1.19545,2.02815 -1.32374,3.19842 h -3.55812 v 1.39481 h 3.55828 c 0.12829,1.17027 0.58728,2.27917 1.32374,3.19842 l -2.58596,2.58468 0.98762,0.98763 2.58468,-2.58596 c 1.10046,0.89694 2.47584,1.38924 3.89583,1.39482 h 0.69741 v 3.48704 h 1.39482 v -3.48704 h 5.57942 v 3.48704 h 1.39482 v -3.48704 h 5.57942 v 3.48704 h 1.39482 v -3.48704 h 0.69741 c 1.41999,-0.006 2.79521,-0.49804 3.89582,-1.39482 l 2.58468,2.58596 0.98763,-0.98763 -2.58596,-2.58468 c 0.57884,-0.72816 0.98619,-1.57761 1.19258,-2.48427 0.0594,-0.23444 0.10406,-0.47286 0.13195,-0.71415 z"
       style="display:inline;fill:#e84f4f;stroke-width:0.15937114"
       inkscape:connector-curvature="0" />
    <g
       style="display:inline"
       transform="matrix(0.15937114,0,0,0.15937114,803.46413,350.89378)"
       id="gEpidemSmallBlueBugs">
      <rect
         id="rect1996"
         height="8.7519999"
         width="17.504"
         style="fill:#76bdf6"
         y="323.82901"
         x="170.66701" />
      <rect
         id="rect1998"
         height="8.7519999"
         width="17.504"
         style="fill:#76bdf6"
         y="367.59"
         x="91.897003" />
      <rect
         id="rect2000"
         height="8.7519999"
         width="17.504"
         style="fill:#76bdf6"
         y="236.308"
         x="21.879999" />
      <rect
         id="rect2002"
         height="8.7519999"
         width="17.504"
         style="fill:#76bdf6"
         y="87.521004"
         x="161.91499" />
      <rect
         id="rect2004"
         height="8.7519999"
         width="17.504"
         style="fill:#76bdf6"
         y="218.80299"
         x="135.658" />
      <rect
         id="rect2006"
         height="8.7519999"
         width="17.504"
         style="fill:#76bdf6"
         y="458.7168"
         x="54.879684" />
      <rect
         id="rect2008"
         height="8.7519999"
         width="17.504"
         style="fill:#76bdf6"
         y="428.85501"
         x="223.17999" />
    </g>
    <g
       transform="matrix(0.15937114,0,0,0.15937114,803.46413,350.89378)"
       id="gEpidemSmallBlueBug2"
       style="display:inline;opacity:0.13999999">
      <ellipse
         id="ellipse2012"
         ry="21.879999"
         rx="8.7519999"
         cy="126.906"
         cx="65.640999" />
    </g>
    <g
       transform="matrix(0.15937114,0,0,0.15937114,803.46413,350.89378)"
       id="gEpidemSmallBlueBug1"
       style="display:inline;opacity:0.13999999">
      <circle
         id="circle2016"
         r="8.7519999"
         cy="96.274002"
         cx="30.632" />
    </g>
    <g
       transform="matrix(0.15937114,0,0,0.15937114,803.46413,350.89378)"
       id="gEpidemSmallRedBug1"
       style="display:inline;opacity:0.13999999">
      <circle
         id="circle2020"
         r="8.7519999"
         cy="332.58099"
         cx="83.144997" />
    </g>
    <g
       transform="matrix(0.15937114,0,0,0.15937114,803.46413,350.89378)"
       id="gEpidemSmallRedBug"
       style="display:inline;opacity:0.13999999">
      <circle
         id="circle2024"
         r="8.7519999"
         cy="367.59"
         cx="144.41" />
    </g>
    <ellipse
       id="pathEpidemMediumRedBug"
       ry="2.7896323"
       rx="6.9742408"
       cy="381.5802"
       cx="855.77051"
       style="display:inline;fill:#e84f4f;stroke-width:0.15937114" />
  </g>
  <g
     id="gEarthquake"
     transform="matrix(0.19921875,0,0,0.19921875,926.04448,335.98885)"
     style="display:inline;opacity:0">
    <circle
       id="pathEarthquakeTopYellowBackground"
       r="256"
       cy="256"
       cx="256"
       style="display:inline;fill:#ffe562" />
    <path
       id="pathEarthquakeYellowCloudShadow"
       d="m 512,256 c 0,26.81 -4.12,52.66 -11.77,76.95 -3.22,10.22 -7.06,20.16 -11.48,29.78 -39.24,85.45 -124.17,145.58 -223.49,149.1 L 106.79,353.36 87.71,334.28 86.66,323.31 72.01,170.67 l 45.91,-4.4 -1.75,-18.22 50.01,-4.8 -1.78,-18.54 74.81,-7.17 73.48,70.95 c 0.97,0.89 1.84,1.89 2.57,2.98 l 35.4,35.13 c 0.91,-6.19 5.79,-11.14 11.96,-12.13 -0.17,-0.86 -0.26,-1.76 -0.32,-2.66 l -66.42,-66.18 c -3.55,-3.37 -5.77,-8.12 -5.77,-13.38 0,-9.2 6.8,-16.89 15.63,-18.3 -0.31,-1.58 -0.48,-3.21 -0.48,-4.89 0,-13.68 11.09,-24.77 24.77,-24.77 7.14,0 13.57,3.02 18.09,7.84 l 6.75,6.79 c 2.14,-0.95 4.51,-1.48 7.02,-1.48 5.04,0 9.56,2.13 12.65,5.52 l 11.59,11.64 c 3.36,1.07 6.3,3.08 8.53,5.72 l 116.63,116.57 c 0.47,6.31 0.71,12.68 0.71,19.11 z"
       style="display:inline;fill:#ffcb26"
       inkscape:connector-curvature="0" />
    <path
       id="pathEarthquakeCloud1White"
       d="m 301.698,184.202 h -1.565 c 0,-7.932 -6.661,-14.363 -14.877,-14.363 -2.863,0 -5.535,0.782 -7.804,2.135 -3.222,-8.046 -11.091,-13.731 -20.288,-13.731 -12.066,0 -21.847,9.781 -21.847,21.847 0,1.477 0.148,2.92 0.427,4.315 -7.784,1.237 -13.785,8.02 -13.785,16.138 v 0 c 0,8.988 7.353,16.341 16.341,16.341 h 63.398 c 8.988,0 16.341,-7.354 16.341,-16.341 v 0 c 0.001,-8.987 -7.353,-16.341 -16.341,-16.341 z"
       style="display:inline;fill:#ffffff"
       inkscape:connector-curvature="0" />
    <path
       id="pathEarthquakeCloud1Yellow"
       d="m 318.039,200.542 c 0,8.988 -7.354,16.342 -16.342,16.342 h -34.091 v -55.988 c 4.44,2.423 7.949,6.341 9.844,11.079 2.271,-1.355 4.942,-2.137 7.806,-2.137 8.215,0 14.876,6.431 14.876,14.365 h 1.565 c 4.496,0 8.58,1.839 11.543,4.799 2.96,2.964 4.799,7.048 4.799,11.54 z"
       style="display:inline;fill:#fff7d6"
       inkscape:connector-curvature="0" />
    <path
       id="pathEarthquakeCloud2White"
       d="m 420.629,214.296 h -1.376 c 0,-6.976 -5.858,-12.632 -13.084,-12.632 -2.518,0 -4.868,0.688 -6.864,1.878 -2.834,-7.077 -9.754,-12.076 -17.843,-12.076 -10.611,0 -19.214,8.602 -19.214,19.214 0,1.299 0.13,2.568 0.376,3.795 -6.846,1.088 -12.123,7.053 -12.123,14.193 v 0 c 0,7.904 6.467,14.372 14.371,14.372 h 55.757 c 7.904,0 14.372,-6.467 14.372,-14.372 v 0 C 435,220.764 428.533,214.296 420.629,214.296 Z"
       style="display:inline;fill:#ffffff"
       inkscape:connector-curvature="0" />
    <path
       id="pathEarthquakeCloud2Yellow"
       d="m 435,228.667 c 0,7.905 -6.467,14.372 -14.372,14.372 H 390.646 V 193.8 c 3.905,2.131 6.991,5.576 8.657,9.743 1.997,-1.191 4.347,-1.879 6.865,-1.879 7.225,0 13.083,5.656 13.083,12.634 h 1.376 c 3.954,0 7.546,1.617 10.151,4.221 2.605,2.605 4.222,6.197 4.222,10.148 z"
       style="display:inline;fill:#fff7d6"
       inkscape:connector-curvature="0" />
    <rect
       id="pathEarthquakeRedBldg"
       height="182.655"
       width="61.891998"
       style="display:inline;fill:#ff4d0b"
       transform="matrix(-0.9954,0.0955,-0.0955,-0.9954,333.2137,456.0786)"
       y="144.686"
       x="124.747" />
    <rect
       id="pathEarthquakeBlueBldgVerticalRect1"
       height="201.274"
       width="75.148003"
       style="display:inline;fill:#0058ad"
       transform="matrix(0.9954,-0.0955,0.0955,0.9954,-20.1682,21.203)"
       y="120.661"
       x="173.849" />
    <rect
       id="pathEarthquakeBlueBldgVerticalRect"
       height="37.578999"
       width="201.274"
       style="display:inline;fill:#003c7d"
       transform="matrix(-0.0955,-0.9954,0.9954,-0.0955,33.5855,469.5349)"
       y="200.71899"
       x="129.47701" />
    <rect
       id="pathEarthquakeBlueBldgWindow1"
       height="22.962999"
       width="18.242001"
       style="display:inline;fill:#00fcef"
       transform="matrix(0.9954,-0.0955,0.0955,0.9954,-13.6883,18.8994)"
       y="140.96899"
       x="181.476" />
    <rect
       id="pathEarthquakeBlueBldgWindow2"
       height="22.962999"
       width="18.242001"
       style="fill:#00e2cd"
       transform="matrix(0.9954,-0.0955,0.0955,0.9954,-13.3006,21.5791)"
       y="138.259"
       x="209.664" />
    <rect
       id="pathEarthquakeBlueBldgWindow4"
       height="22.962999"
       width="18.242001"
       style="fill:#00fcef"
       transform="matrix(0.9954,-0.0955,0.0955,0.9954,-16.8422,19.3543)"
       y="174.145"
       x="184.65199" />
    <rect
       id="pathEarthquakeBlueBldgWindow3"
       height="22.962999"
       width="18.242001"
       style="fill:#00e2cd"
       transform="matrix(0.9954,-0.0955,0.0955,0.9954,-16.4554,22.0349)"
       y="171.44501"
       x="212.849" />
    <rect
       id="pathEarthquakeBlueBldgWindow5"
       height="22.962999"
       width="18.242001"
       style="fill:#00fcef"
       transform="matrix(0.9954,-0.0955,0.0955,0.9954,-19.9961,19.8102)"
       y="207.32201"
       x="187.838" />
    <rect
       id="pathEarthquakeBlueBldgWindow6"
       height="22.962999"
       width="18.242001"
       style="fill:#00e2cd"
       transform="matrix(0.9954,-0.0955,0.0955,0.9954,-19.6093,22.4899)"
       y="204.621"
       x="216.02499" />
    <rect
       id="pathEarthquakeWhiteBldgLeft"
       height="164.345"
       width="79.498001"
       style="display:inline;fill:#ffffff"
       transform="matrix(0.9954,-0.0955,0.0955,0.9954,-23.2032,12.5427)"
       y="166.502"
       x="79.682999" />
    <rect
       id="pathEarthquakeWhiteBldgYellowRight"
       height="39.740002"
       width="164.345"
       style="display:inline;fill:#fff7d6"
       transform="matrix(-0.0955,-0.9954,0.9954,-0.0955,-93.1309,408.8991)"
       y="226.89101"
       x="57.035" />
    <g
       id="gPathEarthquakeWhiteBldgWindow1">
      <rect
         id="rect2278"
         height="21.804001"
         width="12.737"
         style="display:inline;fill:#ffcb26"
         transform="matrix(0.9954,-0.0955,0.0955,0.9954,-18.5773,9.8887)"
         y="188.119"
         x="87.650002" />
      <rect
         id="rect2280"
         height="21.804001"
         width="12.737"
         style="display:inline;fill:#ffcb26"
         transform="matrix(0.9954,-0.0955,0.0955,0.9954,-18.2962,11.8338)"
         y="186.15401"
         x="108.111" />
    </g>
    <g
       id="gPathEarthquakeWhiteBldgWindow2">
      <rect
         id="rect2284"
         height="6.3649998"
         width="21.802999"
         style="fill:#ffac1f"
         transform="matrix(-0.0955,-0.9954,0.9954,-0.0955,-66.9823,332.6419)"
         y="193.57001"
         x="106.735" />
      <rect
         id="rect2286"
         height="21.804001"
         width="12.737"
         style="fill:#ffac1f"
         transform="matrix(0.9954,-0.0955,0.0955,0.9954,-18.0159,13.78)"
         y="184.19901"
         x="128.58299" />
    </g>
    <g
       id="gPathEarthquakeWhiteBldgWindow3">
      <rect
         id="rect2290"
         height="21.804001"
         width="12.737"
         style="fill:#ffcb26"
         transform="matrix(0.9954,-0.0955,0.0955,0.9954,-21.5866,10.3229)"
         y="219.774"
         x="90.681" />
      <rect
         id="rect2292"
         height="21.804001"
         width="12.737"
         style="fill:#ffcb26"
         transform="matrix(0.9954,-0.0955,0.0955,0.9954,-21.3055,12.268)"
         y="217.80901"
         x="111.143" />
    </g>
    <g
       id="gPathEarthquakeWhiteBldgWindow4">
      <rect
         id="rect2296"
         height="6.3649998"
         width="21.802999"
         style="fill:#ffac1f"
         transform="matrix(-0.0955,-0.9954,0.9954,-0.0955,-95.1485,370.3439)"
         y="225.218"
         x="109.781" />
      <rect
         id="rect2298"
         height="21.804001"
         width="12.737"
         style="fill:#ffac1f"
         transform="matrix(0.9954,-0.0955,0.0955,0.9954,-21.0234,14.2142)"
         y="215.83501"
         x="131.61501" />
    </g>
    <g
       id="gPathEarthquakeWhiteBldgWindow5">
      <rect
         id="rect2302"
         height="21.804001"
         width="12.737"
         style="fill:#ffcb26"
         transform="matrix(0.9954,-0.0955,0.0955,0.9954,-24.5951,10.7571)"
         y="251.42"
         x="93.712997" />
      <rect
         id="rect2304"
         height="21.804001"
         width="12.737"
         style="fill:#ffcb26"
         transform="matrix(0.9954,-0.0955,0.0955,0.9954,-24.3138,12.7041)"
         y="249.455"
         x="114.194" />
    </g>
    <path
       id="gPathEarthquakeBottomYellowBackground"
       d="m 500.23,332.95 c -3.22,10.22 -7.06,20.16 -11.48,29.78 C 449.51,448.18 364.58,508.31 265.26,511.83 262.18,511.94 259.1,512 256,512 152.34,512 63.07,450.38 22.82,361.78 18.28,351.81 14.37,341.5 11.13,330.89 l 75.53,-7.58 201.67,-20.25 15.33,30.55 7.17,14.29 -26.83,53.83 37.53,68.81 26.8,-76.14 37.51,-26.6 12,-37.37 9.75,-30.38 z"
       style="display:inline;fill:#ffac1f"
       inkscape:connector-curvature="0" />
    <g
       id="gPathEarthquakeWhiteBldgWindow6"
       style="display:inline">
      <rect
         id="rect2308"
         height="6.3649998"
         width="21.802999"
         style="fill:#ffac1f"
         transform="matrix(-0.0955,-0.9954,0.9954,-0.0955,-123.3377,408.0251)"
         y="256.866"
         x="112.806" />
      <rect
         id="rect2310"
         height="21.804001"
         width="12.737"
         style="fill:#ffac1f"
         transform="matrix(0.9954,-0.0955,0.0955,0.9954,-24.0318,14.6483)"
         y="247.481"
         x="134.646" />
    </g>
    <path
       id="pathEarthquakeValley"
       d="m 500.23,332.95 c -3.22,10.22 -7.06,20.16 -11.48,29.78 -39.24,85.45 -124.17,145.58 -223.49,149.1 -3.08,0.11 -6.16,0.17 -9.26,0.17 V 306.31 l 32.33,-3.25 15.33,30.55 7.17,14.29 -26.83,53.83 37.53,68.81 26.8,-76.14 37.51,-26.6 12,-37.37 9.75,-30.38 z"
       style="display:inline;fill:#f08a17"
       inkscape:connector-curvature="0" />
    <path
       id="pathEarthquakeSurface1"
       d="m 303.66,333.61 -196.87,19.75 -83.97,8.42 C 18.28,351.81 14.37,341.5 11.13,330.89 l 75.53,-7.58 201.67,-20.25 z"
       style="fill:#ae600d"
       inkscape:connector-curvature="0" />
    <g
       id="gPathEarthquakeSurface"
       style="display:inline">
      <path
         id="pathEarthquakeSurface3"
         d="m 500.23,332.95 c -3.22,10.22 -7.06,20.16 -11.48,29.78 l -90.91,-32.3 9.75,-30.38 z"
         style="fill:#864907"
         inkscape:connector-curvature="0" />
      <polygon
         id="pathEarthquakeSurface2"
         points="256,306.31 288.33,303.06 303.66,333.61 256,338.39 "
         style="fill:#864907" />
    </g>
    <path
       id="pathEarthquakeCloud3White"
       d="m 380.535,113.724 h -1.775 c 0,-8.995 -7.553,-16.288 -16.871,-16.288 -3.246,0 -6.277,0.887 -8.85,2.421 -3.654,-9.125 -12.577,-15.571 -23.007,-15.571 -13.682,0 -24.774,11.092 -24.774,24.774 0,1.675 0.167,3.311 0.484,4.893 -8.828,1.402 -15.632,9.095 -15.632,18.301 v 0 c 0,10.192 8.339,18.531 18.531,18.531 h 71.894 c 10.192,0 18.531,-8.339 18.531,-18.531 v 0 c -10e-4,-10.192 -8.34,-18.53 -18.531,-18.53 z"
       style="display:inline;fill:#ffffff"
       inkscape:connector-curvature="0" />
    <path
       id="pathEarthquakeCloud3Yellow"
       d="m 399.065,132.253 c 0,10.193 -8.339,18.532 -18.532,18.532 h -38.659 v -63.49 c 5.035,2.748 9.014,7.19 11.163,12.563 2.576,-1.536 5.604,-2.423 8.852,-2.423 9.315,0 16.87,7.293 16.87,16.29 h 1.774 c 5.098,0 9.729,2.086 13.089,5.442 3.357,3.36 5.443,7.992 5.443,13.086 z"
       style="display:inline;fill:#fff7d6"
       inkscape:connector-curvature="0" />
  </g>
  <g
     id="gPathBannerEpidemiology"
     style="display:inline">
    <path
       id="pathBannerLetterS"
       d="m 784,443.77778 h 119 v 26.44444 H 784 Z"
       style="opacity:1;fill:#d33a02;fill-opacity:1;stroke:none;stroke-width:1.03039002;stroke-linejoin:miter;stroke-miterlimit:4;stroke-dasharray:none;stroke-opacity:1"
       inkscape:connector-curvature="0" />
    <text
       xml:space="preserve"
       style="font-style:normal;font-weight:normal;font-size:16.17546844px;line-height:1.25;font-family:sans-serif;letter-spacing:0px;word-spacing:0px;fill:#ffffff;fill-opacity:1;stroke:none;stroke-width:1.07644022"
       x="852.70581"
       y="426.13138"
       id="txtEpidemiology"
       transform="scale(0.91981884,1.0871706)"><tspan
         sodipodi:role="line"
         id="tspan7035"
         x="852.70581"
         y="426.13138"
         style="font-size:16.17546844px;stroke-width:1.07644022">EPIDEMIOLOGY</tspan></text>
  </g>
  <g
     id="gPathBannerEmergency"
     style="display:inline"
     inkscape:groupmode="layer">
    <path
       style="opacity:1;fill:#d33a02;fill-opacity:1;stroke:none;stroke-width:1.03039002;stroke-linejoin:miter;stroke-miterlimit:4;stroke-dasharray:none;stroke-opacity:1"
       d="m 920,443.55556 h 119 V 470 H 920 Z"
       id="pathBannerLetterP"
       inkscape:connector-curvature="0" />
    <text
       xml:space="preserve"
       style="font-style:normal;font-weight:normal;font-size:18.66666603px;line-height:1.25;font-family:sans-serif;letter-spacing:0px;word-spacing:0px;fill:#ffffff;fill-opacity:1;stroke:none"
       x="919.94592"
       y="464.28513"
       id="txtEmergency"
       inkscape:label="#txtEmergency"><tspan
         sodipodi:role="line"
         id="tspan7039"
         x="919.94592"
         y="464.28513">EMERGENCY</tspan></text>
  </g>
  <g
     id="gPathBannerAnalysis"
     style="display:inline"
     transform="matrix(1.0081962,0,0,1,-3.1637156,0)">
    <path
       id="pathBannerLetterG"
       d="m 386,443.77778 h 119 v 26.44444 H 386 Z"
       style="opacity:1;fill:#d33a02;fill-opacity:1;stroke:none;stroke-width:1.03039002;stroke-linejoin:miter;stroke-miterlimit:4;stroke-dasharray:none;stroke-opacity:1"
       inkscape:connector-curvature="0" />
    <text
       xml:space="preserve"
       style="font-style:normal;font-weight:normal;font-size:40px;line-height:1.25;font-family:sans-serif;letter-spacing:0px;word-spacing:0px;fill:#ffffff;fill-opacity:1;stroke:none"
       x="399.17612"
       y="463.80069"
       id="txtAnalyses"><tspan
         sodipodi:role="line"
         id="tspan6978"
         x="399.17612"
         y="463.80069"
         style="font-size:18.66666603px;fill:#ffffff;fill-opacity:1">ANALYSES</tspan></text>
  </g>
  <g
     id="gGlobe"
     transform="matrix(0.23471159,0,0,0.2347271,654.13003,326.28334)"
     style="display:none">
    <path
       style="fill:#65b1ef"
       d="M 511.23199,255.633 A 255.616,255.616 0 0 1 255.616,511.24899 255.616,255.616 0 0 1 0,255.633 255.616,255.616 0 0 1 255.616,0.01699829 255.616,255.616 0 0 1 511.23199,255.633 Z"
       id="circle5371"
       inkscape:connector-curvature="0" />
    <g
       id="g5799"
       transform="matrix(0.99993389,0,0,0.99999997,0.02397519,4.9099499e-6)">
      <circle
         id="circle5717"
         r="255.616"
         cy="255.633"
         cx="255.616"
         style="fill:#65b1ef" />
      <g
         id="g5735">
        <path
           id="path5719"
           d="m 131.392,470.129 c -0.048,0.096 -0.112,0.16 -0.16,0.256 0.384,0.096 0.752,0.224 1.136,0.304 z"
           style="fill:#e9eff4"
           inkscape:connector-curvature="0" />
        <path
           id="path5721"
           d="m 115.312,109.857 -0.512,-1.04 c 4.272,-0.64 4.56,-3.648 7.808,-4.752 3.696,-1.216 2.432,0.112 6.064,0 2.944,-0.128 4.736,2.016 8.096,0.448 -0.816,1.44 -2.144,2.432 -3.472,3.408 -2.768,1.968 -5.6,3.984 -8.896,4.752 -3.296,0.752 -7.168,-0.048 -9.088,-2.816 z"
           style="fill:#e9eff4"
           inkscape:connector-curvature="0" />
        <path
           id="path5723"
           d="m 166.448,337.697 c -0.064,2.256 -1.392,4.224 -2.544,6.128 -5.136,8.384 -8.256,18.096 -8.944,27.936 -0.688,9.424 -0.272,21.04 -8.48,25.68 -4.688,2.608 -11.28,2.144 -14.4,6.544 -0.976,1.328 -1.44,3.008 -1.904,4.576 -2.016,7.344 -4.048,14.688 -6.064,22.032 -2.608,-0.224 -5.264,-0.512 -7.856,-0.8 3.072,0.976 5.2,5.136 3.36,7.984 -2.944,-1.552 -6.816,0.288 -8.448,3.248 -1.552,2.944 -1.328,6.528 -0.464,9.776 2.672,9.6 10.88,17.344 20.544,19.648 -1.68,3.184 -6.816,1.792 -9.952,-0.336 -22.384,-15.136 -39.28,-38.192 -46.992,-64.096 -2.72,-9.136 -4.464,-18.848 -9.792,-26.704 -4.448,-6.64 -11.168,-11.504 -15.616,-18.144 -6.24,-9.536 -7.408,-21.904 -14.64,-30.624 -4.048,-4.976 -10.304,-11.088 -6.72,-16.416 1.44,-2.192 4.512,-4.272 3.296,-6.592 -0.4,-0.752 -1.216,-1.216 -1.856,-1.856 -2.432,-2.608 -0.752,-6.704 0.464,-10.064 2.016,-5.84 2.016,-12.08 1.152,-18.32 -6.08,-5.44 -10.88,-12.192 -13.888,-19.776 -1.792,-4.624 -4.176,-10.4 -9.136,-10.464 -1.28,-3.584 -2.608,-7.168 -3.888,-10.752 -0.464,1.28 -1.728,2.08 -3.12,2.256 3.84,-58.576 27.456,-111.728 64.208,-152.912 0.816,-0.352 1.616,-0.816 2.432,-1.28 8.72,-5.088 15.664,-12.72 24.096,-18.272 1.728,-1.152 3.696,-2.256 5.84,-2.032 2.08,0.176 4.048,2.304 3.296,4.272 -0.288,0.816 -0.976,1.456 -1.68,1.968 -9.872,8.4 -20.688,15.744 -32.192,21.824 -1.376,0.688 -2.832,1.504 -3.456,2.896 -1.168,2.368 0.8,5.312 3.296,6.176 2.48,0.864 5.264,0.352 7.808,-0.224 -2.144,3.056 -2.784,7.168 -1.68,10.752 2.368,0.224 3.12,-3.008 3.824,-5.264 2.88,-8.96 17.168,-12.608 16.24,-22.048 3.872,2.016 7.808,-2.496 10.176,-6.192 2.368,-3.76 7.632,-7.456 10.528,-4.16 0.16,1.84 0.384,3.696 0.56,5.552 5.088,-1.28 10.24,-2.608 15.328,-3.888 -2.896,2.032 -3.872,6.368 -2.208,9.488 1.68,3.12 5.84,4.688 9.136,3.408 -0.048,2.72 -2.48,4.8 -4.688,6.416 -5.6,4.224 -11.616,8.56 -18.144,10.64 l 1.504,3.12 c -0.16,0.064 -0.336,0.128 -0.512,0.128 -4.16,0.4 -8.56,-2.592 -13.008,-2.016 -2.72,0.352 -6.064,0.352 -7.632,3.12 -0.224,0.352 -1.2,5.2 -0.512,4.8 2.432,-1.392 4.848,-2.784 7.232,-4.16 0.736,1.968 0.912,4.16 0.512,6.304 2.944,-0.288 6.016,0.336 8.624,1.904 -2.72,6.304 -9.712,10.528 -16.592,10 -0.064,-2.08 -0.176,-4.16 -0.24,-6.24 -5.664,-0.464 -10.288,4.4 -13.12,9.264 -2.88,4.912 -5.072,10.528 -9.824,13.648 -2.88,1.968 -6.416,2.72 -9.536,4.336 -3.056,1.68 -5.888,4.864 -5.248,8.272 0.288,1.616 1.328,3.12 1.28,4.8 -0.176,3.12 -3.808,4.576 -6.24,6.592 -4.16,3.472 -5.2,9.84 -9.648,12.896 -3.232,2.256 -7.52,2.208 -11.28,3.36 -3.76,1.152 -7.52,4.912 -6,8.56 -1.856,0.64 -4.112,-0.752 -4.288,-2.72 -6.64,13.072 -11.024,27.296 -12.816,41.872 3.296,2.304 6.64,-2.96 7.28,-6.944 0.688,-3.984 4.16,-9.2 7.392,-6.832 -0.752,5.728 -1.504,11.392 -2.24,17.12 -0.176,1.104 -0.288,2.256 0.24,3.232 0.64,1.216 2.016,1.728 3.072,2.592 2.944,2.544 2.544,7.056 2.72,10.928 0.176,4.736 1.744,9.36 4.224,13.408 -0.24,-0.816 -0.4,-1.616 -0.576,-2.432 4.512,0.576 9.2,-0.88 12.608,-3.888 1.792,-1.616 3.296,-3.696 5.552,-4.512 2.32,-0.864 4.864,-0.24 7.232,0.4 7.344,2.016 15.152,4.272 20.064,10.048 2.48,2.944 4.048,6.656 7.008,9.072 6.704,5.664 18.048,3.168 24.176,9.472 4.912,5.088 4,13.296 2.672,20.288 -3.36,-1.84 -7.856,2.784 -5.888,6.08 1.792,-1.968 3.872,-4.048 6.48,-4.048 2.656,-0.064 4.976,3.584 3.008,5.264 4.624,-5.904 15.952,-3.472 17.744,3.872 6.48,0.464 13.008,0.912 19.488,1.44 -1.248,9.504 18.656,10.064 18.256,19.616 z"
           style="fill:#e9eff4"
           inkscape:connector-curvature="0" />
        <path
           id="path5725"
           d="m 127.04,70.193 c -2.496,1.232 -5.936,-0.16 -6.864,-2.784 -0.944,-2.624 0.832,-5.872 3.552,-6.496 1.712,-0.4 4.096,-0.208 4.624,-1.888 0.16,-0.512 0.064,-1.072 0.064,-1.6 -0.064,-3.168 2.768,-5.792 5.824,-6.592 3.056,-0.784 6.288,-0.176 9.392,0.432 1.104,2.288 1.424,4.944 0.896,7.424 -2.128,0.096 -4.256,0.176 -6.384,0.272 0.192,3.536 -0.16,7.984 -3.44,9.296 -2.944,1.168 -6.784,-1.008 -9.232,0.976"
           style="fill:#e9eff4"
           inkscape:connector-curvature="0" />
        <path
           id="path5727"
           d="m 160.176,34.881 c 5.808,-2.784 10.72,-7.168 16.448,-10.112 9.856,-5.056 21.36,-5.504 32.432,-5.856 25.2,-0.784 50.4,-1.568 75.6,-2.352 -5.84,3.2 -11.68,6.416 -17.536,9.616 -4.768,2.624 -10.192,5.312 -15.424,3.824 -0.112,4.208 3.712,8.112 7.936,8.08 -10.352,6.4 -24.72,-0.144 -35.648,5.232 -4.576,2.256 -8.272,6.512 -13.312,7.312 -2.912,0.464 -5.936,-0.32 -8.832,0.32 -4.848,1.056 -7.904,5.648 -11.488,9.072 -4.128,3.952 -10.192,6.656 -15.584,4.768 -5.392,-1.888 -8.208,-9.904 -3.888,-13.648 2.128,-1.84 5.168,-2.144 7.68,-3.44 2.512,-1.28 4.496,-4.72 2.608,-6.816 -0.816,-0.912 -2.16,-1.264 -2.912,-2.24 -0.816,-1.056 -0.736,-2.56 -1.408,-3.712 -2.56,-4.496 -9.68,1.552 -14.528,-0.256"
           style="fill:#e9eff4"
           inkscape:connector-curvature="0" />
        <path
           id="path5729"
           d="m 236.704,56.145 c 3.408,-0.784 6.368,-2.8 9.552,-4.272 3.184,-1.472 6.976,-2.336 10.096,-0.784 0.928,2.32 -1.744,4.432 -4.096,5.264 -4.512,1.584 -9.408,2.016 -14.128,1.232"
           style="fill:#e9eff4"
           inkscape:connector-curvature="0" />
        <path
           id="path5731"
           d="m 442.736,81.569 c -0.928,0.112 -1.904,0.064 -2.896,-0.176 -4.336,-0.928 -7.632,-4.272 -11.344,-6.704 -8.56,-5.664 -20.24,-6.4 -29.488,-1.776 2.192,-3.184 3.296,-7.12 3.056,-10.992 l -1.328,0.464 c -15.152,-8.784 -32.912,-17.904 -49.44,-12 -3.824,1.392 -7.28,3.472 -11.152,4.8 -4.112,1.44 -8.672,2.032 -12.192,4.576 -3.584,2.544 -5.488,8.16 -2.416,11.216 2.608,2.608 6.768,1.904 10.416,2.256 3.584,0.352 7.696,3.92 5.728,6.992 -15.84,7.408 -31.728,14.88 -47.568,22.352 7.28,2.368 12.096,10.624 10.528,18.144 -5.328,0.928 -10.464,-2.304 -15.84,-2.656 -7.808,-0.4 -15.264,6.48 -15.424,14.288 -0.224,7.808 6.944,15.024 14.752,14.912 5.84,-0.064 11.568,-3.584 17.232,-2.096 0.224,-5.328 3.872,-9.84 7.616,-13.648 7.28,-7.296 17.68,-13.888 27.408,-10.304 3.184,1.152 5.904,3.296 8.56,5.424 5.84,4.624 11.68,9.296 17.536,13.984 1.856,-1.904 3.696,-3.824 5.552,-5.664 3.184,3.36 6.368,6.704 9.6,10.112 1.616,-1.104 3.296,-2.144 4.912,-3.248 1.152,3.008 2.368,5.952 3.536,8.96 0.464,-3.296 0.864,-6.528 1.264,-9.776 3.824,0.112 7.872,0.224 11.328,-1.504 3.472,-1.68 6.016,-5.84 4.56,-9.424 -0.752,-1.904 -2.544,-3.408 -2.896,-5.44 -0.752,-4.048 5.024,-6.816 8.784,-4.976 3.696,1.792 5.552,6.016 7.12,9.888 0.864,-3.936 1.664,-7.808 2.544,-11.744 3.616,9.504 8.832,18.4 15.312,26.208 -11.856,-2.256 -24.352,-0.96 -35.44,3.6 3.536,4.976 9.6,7.92 15.68,7.68 2.72,-0.064 5.728,-0.688 7.808,1.04 1.568,1.328 1.968,3.472 2.256,5.44 0.928,5.552 1.856,11.04 2.72,16.528 -6.256,-5.136 -15.264,-4.56 -23.424,-4.72 -8.16,-0.224 -17.696,-2.48 -20.704,-10.048 -3.232,3.648 -4.672,8.848 -3.744,13.712 -8.448,-2.016 -18.16,-5.248 -20.592,-13.584 -6.592,2.432 -14.8,-1.776 -16.592,-8.544 -0.64,-2.368 -0.816,-5.264 -2.896,-6.528 -1.264,-0.752 -2.896,-0.64 -4.4,-0.464 -12.544,1.456 -25.04,2.848 -37.52,4.304 -6.816,0.816 -13.872,1.632 -19.888,4.976 -6.016,3.296 -10.8,9.776 -10.112,16.608 -11.504,6.832 -21.264,16.72 -27.856,28.352 -2.08,3.584 -3.872,7.696 -3.056,11.744 0.576,3.12 2.656,5.776 3.296,8.848 1.104,5.264 -1.904,10.352 -3.168,15.552 -3.584,14.8 7.648,28.736 18.064,39.936 4.912,5.2 10.592,10.864 17.76,11.152 4.448,0.176 8.672,-1.792 12.832,-3.424 11.904,-4.688 24.864,-6.832 37.632,-6.32 -2.896,2.256 0.112,7.168 3.712,7.92 3.584,0.752 7.456,-0.416 10.928,0.8 7.92,2.832 6.832,14.448 3.248,22.032 1.792,-0.352 3.648,-0.704 5.488,-1.04 -0.976,2.544 -1.968,5.088 -2.944,7.568 10.864,1.376 14.976,15.664 12.448,26.352 -2.48,10.704 -8.832,20.528 -9.008,31.52 -0.048,6.016 1.792,11.856 3.648,17.568 4.64,14.512 9.264,29.024 13.904,43.584 12.96,1.552 20.4,-14.928 32.432,-20.08 4.512,-1.968 9.824,-2.368 13.36,-5.728 3.408,-3.232 2.304,-10.816 -2.08,-10.816 5.952,-0.64 11.04,-6.08 11.216,-12.096 0.064,-1.68 -0.176,-3.36 0.048,-5.024 0.4,-2.368 1.904,-4.448 3.344,-6.48 9.184,-13.184 15.136,-28.288 21.088,-43.2 1.552,-4 3.12,-7.92 4.672,-11.92 5.888,-14.864 11.728,-29.664 17.616,-44.528 2.304,-5.84 4.624,-11.616 6.928,-17.472 -3.184,5.264 -11.504,4.576 -16.256,0.64 -4.8,-3.92 -7.296,-9.888 -11.056,-14.8 -3.184,-4.224 -7.472,-7.968 -8.976,-13.12 -0.864,-2.944 -0.704,-6.128 -1.216,-9.2 -1.168,-6.656 -5.552,-12.192 -8.56,-18.208 -3.008,-6.016 -4.576,-13.808 -0.352,-19.088 12.16,21.216 23.216,43.056 33.216,65.44 1.104,-3.472 3.648,-6.48 6.88,-8.16 2.368,-1.28 5.024,-1.792 7.52,-2.832 6.592,-2.896 11.152,-9.888 11.152,-17.056 -0.064,-7.168 -4.624,-14.16 -11.28,-16.992 -3.296,-1.392 -7.056,-1.84 -10.176,-3.76 -3.12,-1.84 -5.376,-6.064 -3.408,-9.136 1.84,-2.896 6.304,-2.832 9.36,-1.216 3.072,1.68 5.328,4.512 8.208,6.416 2.08,1.392 4.512,2.304 6.768,3.584 12.208,6.992 15.216,22.896 17.776,36.768 1.392,7.456 2.96,14.864 4.816,22.144 0.064,-1.568 0.048,-3.184 0.048,-4.736 C 511.2,188.273 485.2,127.169 442.736,81.569 Z m 23.408,84 c -1.68,-0.112 -3.232,-1.216 -4.576,-2.256 -2.192,-1.728 -4.4,-3.76 -5.04,-6.48 -0.752,-3.232 0.8,-6.944 -0.928,-9.824 -0.816,-1.392 -2.256,-2.256 -3.472,-3.232 -3.184,-2.544 -5.504,-6.192 -6.368,-10.112 -0.752,-3.472 0.336,-8.096 3.872,-8.672 1.68,-0.288 3.52,0.64 4.272,2.192 l -2.368,1.28 c 3.984,0.464 5.84,6.48 2.784,9.072 -0.4,0.4 -0.928,0.752 -0.928,1.328 0,0.352 0.224,0.688 0.528,0.928 2.48,2.72 6.192,3.696 9.424,5.424 3.232,1.68 6.416,4.8 5.904,8.384 -1.04,0.4 -2.016,0.752 -3.056,1.152 -1.104,1.104 -0.224,3.072 0.928,4.16 1.152,1.088 2.656,2.192 2.72,3.808 0,1.744 -1.968,2.96 -3.696,2.848 z"
           style="fill:#e9eff4"
           inkscape:connector-curvature="0" />
        <path
           id="path5733"
           d="m 467.808,343.457 -4.176,2.96 c 1.456,5.12 -1.456,11.12 -6.4,13.12 -2.608,1.056 -6.08,1.52 -6.96,4.192 -0.736,2.272 1.024,4.576 1.264,6.944 0.384,3.936 -3.296,6.88 -5.952,9.808 -2.656,2.928 -4.064,8.432 -0.528,10.192 0.816,0.416 1.76,0.496 2.672,0.576 3.84,0.336 8.048,0.448 11.184,-1.792 8.992,-6.416 0.448,-23.824 9.328,-30.416 1.264,-0.928 2.848,-1.6 3.536,-3.008 2.096,-4.144 -5.632,-8.256 -3.968,-12.576 z"
           style="fill:#e9eff4"
           inkscape:connector-curvature="0" />
      </g>
      <g
         id="g5737" />
      <g
         id="g5739" />
      <g
         id="g5741" />
      <g
         id="g5743" />
      <g
         id="g5745" />
      <g
         id="g5747" />
      <g
         id="g5749" />
      <g
         id="g5751" />
      <g
         id="g5753" />
      <g
         id="g5755" />
      <g
         id="g5757" />
      <g
         id="g5759" />
      <g
         id="g5761" />
      <g
         id="g5763" />
      <g
         id="g5765" />
    </g>
  </g>
  <path
     style="display:none;opacity:1;fill:none;fill-opacity:1;stroke:#41c25e;stroke-width:3.4000001;stroke-linejoin:miter;stroke-miterlimit:4;stroke-dasharray:none;stroke-opacity:1"
     d="m 715.15765,361.86942 c 16.84468,0 30.5,13.65532 30.5,30.5 0,16.84468 -13.65532,30.5 -30.5,30.5 -16.84468,0 -30.5,-13.65532 -30.5,-30.5 0,-16.84468 13.65532,-30.5 30.5,-30.5"
     id="pathCircleBurstGreenCircle"
     inkscape:connector-curvature="0" />
  <g
     id="grpWordGrasp"
     style="display:none;opacity:1">
    <text
       xml:space="preserve"
       style="font-style:normal;font-variant:normal;font-weight:normal;font-stretch:normal;font-size:86.66666412px;line-height:1.25;font-family:'Times New Roman';-inkscape-font-specification:'Times New Roman, Normal';font-variant-ligatures:normal;font-variant-caps:normal;font-variant-numeric:normal;font-feature-settings:normal;text-align:start;letter-spacing:0px;word-spacing:0px;writing-mode:lr-tb;text-anchor:start;fill:#135eab;fill-opacity:1;stroke:none"
       x="407.41156"
       y="416.8103"
       id="txtGraspLetterG"
       inkscape:label="#txtGraspLetterG"><tspan
         sodipodi:role="line"
         id="tspan7067"
         x="407.41156"
         y="416.8103">G</tspan></text>
    <text
       xml:space="preserve"
       style="font-style:normal;font-variant:normal;font-weight:normal;font-stretch:normal;font-size:86.66666412px;line-height:1.25;font-family:'Times New Roman';-inkscape-font-specification:'Times New Roman, Normal';font-variant-ligatures:normal;font-variant-caps:normal;font-variant-numeric:normal;font-feature-settings:normal;text-align:start;letter-spacing:0px;word-spacing:0px;writing-mode:lr-tb;text-anchor:start;fill:#135eab;fill-opacity:1;stroke:none"
       x="550.80493"
       y="416.8103"
       id="txtGraspLetterR"
       inkscape:label="#txtGraspLetterR"><tspan
         sodipodi:role="line"
         id="tspan7071"
         x="550.80493"
         y="416.8103">R</tspan></text>
    <text
       xml:space="preserve"
       style="font-style:normal;font-variant:normal;font-weight:normal;font-stretch:normal;font-size:86.66666412px;line-height:1.25;font-family:'Times New Roman';-inkscape-font-specification:'Times New Roman, Normal';font-variant-ligatures:normal;font-variant-caps:normal;font-variant-numeric:normal;font-feature-settings:normal;text-align:start;letter-spacing:0px;word-spacing:0px;writing-mode:lr-tb;text-anchor:start;fill:#135eab;fill-opacity:1;stroke:none"
       x="680.63403"
       y="418.26361"
       id="txtGraspLetterA"><tspan
         sodipodi:role="line"
         id="tspan7075"
         x="680.63403"
         y="418.26361">A</tspan></text>
    <text
       xml:space="preserve"
       style="font-style:normal;font-variant:normal;font-weight:normal;font-stretch:normal;font-size:86.66666412px;line-height:1.25;font-family:'Times New Roman';-inkscape-font-specification:'Times New Roman, Normal';font-variant-ligatures:normal;font-variant-caps:normal;font-variant-numeric:normal;font-feature-settings:normal;text-align:start;letter-spacing:0px;word-spacing:0px;writing-mode:lr-tb;text-anchor:start;fill:#135eab;fill-opacity:1;stroke:none"
       x="815.3075"
       y="415.35699"
       id="txtGraspLetterS"
       inkscape:label="#txtGraspLetterS"><tspan
         sodipodi:role="line"
         id="tspan7079"
         x="815.3075"
         y="415.35699">S</tspan></text>
    <text
       xml:space="preserve"
       style="font-style:normal;font-variant:normal;font-weight:normal;font-stretch:normal;font-size:86.66666412px;line-height:1.25;font-family:'Times New Roman';-inkscape-font-specification:'Times New Roman, Normal';font-variant-ligatures:normal;font-variant-caps:normal;font-variant-numeric:normal;font-feature-settings:normal;text-align:start;letter-spacing:0px;word-spacing:0px;writing-mode:lr-tb;text-anchor:start;fill:#135eab;fill-opacity:1;stroke:none"
       x="955.9682"
       y="417.47543"
       id="txtGraspLetterP"
       inkscape:label="#txtGraspLetterP"><tspan
         sodipodi:role="line"
         id="tspan7083"
         x="955.9682"
         y="417.47543">P</tspan></text>
  </g>
  <g
     id="gPathCircleBurstSunrays"
     transform="translate(-53.321639,154.3287)"
     style="display:inline;shape-rendering:crispEdges">
    <path
       inkscape:connector-curvature="0"
       id="path13847"
       d="m 725.85861,226.02773 c 0,3.33333 0,6.66667 0,10 13.33333,-1.66667 26.66667,-3.33333 40,-5 -13.33333,-1.66667 -26.66667,-3.33333 -40,-5 z"
       style="fill:#43bdda;fill-opacity:1;stroke:none;stroke-width:1.15470064px;stroke-linecap:butt;stroke-linejoin:miter;stroke-opacity:1" />
    <use
       height="100%"
       width="100%"
       inkscape:transform-center-y="-0.50216034"
       inkscape:transform-center-x="19.584253"
       id="use14807"
       xlink:href="#path13847"
       inkscape:tiled-clone-of="#path13847"
       y="0"
       x="0" />
    <use
       height="100%"
       width="100%"
       inkscape:transform-center-y="-12.392072"
       inkscape:transform-center-x="17.959381"
       id="use14809"
       transform="rotate(30,765.44286,231.52989)"
       xlink:href="#path13847"
       inkscape:tiled-clone-of="#path13847"
       y="0"
       x="0" />
    <use
       height="100%"
       width="100%"
       inkscape:transform-center-y="-18.461538"
       inkscape:transform-center-x="11.522308"
       id="use14811"
       transform="rotate(60,765.44286,231.52989)"
       xlink:href="#path13847"
       inkscape:tiled-clone-of="#path13847"
       y="0"
       x="0" />
    <use
       height="100%"
       width="100%"
       inkscape:transform-center-y="-19.58425"
       inkscape:transform-center-x="-0.502157"
       id="use14813"
       transform="rotate(90,765.44286,231.52989)"
       xlink:href="#path13847"
       inkscape:tiled-clone-of="#path13847"
       y="0"
       x="0" />
    <use
       height="100%"
       width="100%"
       inkscape:transform-center-y="-17.959378"
       inkscape:transform-center-x="-12.392069"
       id="use14815"
       transform="rotate(120,765.44286,231.52989)"
       xlink:href="#path13847"
       inkscape:tiled-clone-of="#path13847"
       y="0"
       x="0" />
    <use
       height="100%"
       width="100%"
       inkscape:transform-center-y="-11.522306"
       inkscape:transform-center-x="-18.461535"
       id="use14817"
       transform="rotate(150,765.44286,231.52989)"
       xlink:href="#path13847"
       inkscape:tiled-clone-of="#path13847"
       y="0"
       x="0" />
    <use
       height="100%"
       width="100%"
       inkscape:transform-center-y="0.50215966"
       inkscape:transform-center-x="-19.584247"
       id="use14819"
       transform="rotate(180,765.44285,231.52989)"
       xlink:href="#path13847"
       inkscape:tiled-clone-of="#path13847"
       y="0"
       x="0" />
    <use
       height="100%"
       width="100%"
       inkscape:transform-center-y="12.392071"
       inkscape:transform-center-x="-17.959375"
       id="use14821"
       transform="rotate(-150,765.44286,231.52989)"
       xlink:href="#path13847"
       inkscape:tiled-clone-of="#path13847"
       y="0"
       x="0" />
    <use
       height="100%"
       width="100%"
       inkscape:transform-center-y="18.461538"
       inkscape:transform-center-x="-11.522302"
       id="use14823"
       transform="rotate(-120,765.44286,231.52989)"
       xlink:href="#path13847"
       inkscape:tiled-clone-of="#path13847"
       y="0"
       x="0" />
    <use
       height="100%"
       width="100%"
       inkscape:transform-center-y="19.58425"
       inkscape:transform-center-x="0.502163"
       id="use14825"
       transform="rotate(-90,765.44286,231.52989)"
       xlink:href="#path13847"
       inkscape:tiled-clone-of="#path13847"
       y="0"
       x="0" />
    <use
       height="100%"
       width="100%"
       inkscape:transform-center-y="17.959378"
       inkscape:transform-center-x="12.392075"
       id="use14827"
       transform="rotate(-60,765.44286,231.52989)"
       xlink:href="#path13847"
       inkscape:tiled-clone-of="#path13847"
       y="0"
       x="0" />
    <use
       height="100%"
       width="100%"
       inkscape:transform-center-y="11.522305"
       inkscape:transform-center-x="18.461541"
       id="use14829"
       transform="rotate(-30,765.44286,231.52989)"
       xlink:href="#path13847"
       inkscape:tiled-clone-of="#path13847"
       y="0"
       x="0" />
  </g>
  <g
     id="grpWordPlace"
     style="display:none;opacity:1"
     inkscape:label="#grpWordPlace">
    <text
       xml:space="preserve"
       style="font-style:normal;font-weight:normal;font-size:86.66666412px;line-height:1.25;font-family:sans-serif;letter-spacing:0px;word-spacing:0px;fill:#135eab;fill-opacity:1;stroke:none"
       x="556.61816"
       y="421.65469"
       id="txtPlaceLetterL"
       inkscape:label="#txtPlaceLetterL"><tspan
         sodipodi:role="line"
         id="tspan7043"
         x="556.61816"
         y="421.65469">L</tspan></text>
    <text
       xml:space="preserve"
       style="font-style:normal;font-weight:normal;font-size:86.66666412px;line-height:1.25;font-family:sans-serif;letter-spacing:0px;word-spacing:0px;fill:#135eab;fill-opacity:1;stroke:none"
       x="417.58472"
       y="416.8103"
       id="txtPlaceLetterP"><tspan
         sodipodi:role="line"
         id="tspan7047"
         x="417.58472"
         y="416.8103">P</tspan></text>
    <text
       xml:space="preserve"
       style="font-style:normal;font-weight:normal;font-size:86.66666412px;line-height:1.25;font-family:sans-serif;letter-spacing:0px;word-spacing:0px;fill:#135eab;fill-opacity:1;stroke:none"
       x="682.57184"
       y="419.71695"
       id="txtPlaceLetterA"
       inkscape:label="#txtPlaceLetterA"><tspan
         sodipodi:role="line"
         id="tspan7055"
         x="682.57184"
         y="419.71695">A</tspan></text>
    <text
       xml:space="preserve"
       style="font-style:normal;font-weight:normal;font-size:86.66666412px;line-height:1.25;font-family:sans-serif;letter-spacing:0px;word-spacing:0px;fill:#135eab;fill-opacity:1;stroke:none"
       x="813.36975"
       y="418.26361"
       id="txtPlaceLetterC"><tspan
         sodipodi:role="line"
         id="tspan7059"
         x="813.36975"
         y="418.26361">C</tspan></text>
    <text
       xml:space="preserve"
       style="font-style:normal;font-weight:normal;font-size:86.66666412px;line-height:1.25;font-family:sans-serif;letter-spacing:0px;word-spacing:0px;fill:#135eab;fill-opacity:1;stroke:none"
       x="954.00214"
       y="418.845"
       id="txtPlaceLetterE"
       inkscape:label="#txtPlaceLetterE"><tspan
         sodipodi:role="line"
         id="tspan7063"
         x="954.00214"
         y="418.845">E</tspan></text>
  </g>
  <g
     id="gPathBannerGisTech"
     style="display:inline"
     inkscape:groupmode="layer">
    <path
       style="opacity:1;fill:#d33a02;fill-opacity:1;stroke:none;stroke-width:1.03039002;stroke-linejoin:miter;stroke-miterlimit:4;stroke-dasharray:none;stroke-opacity:1"
       d="m 520,443.77778 h 119 v 26.44444 H 520 Z"
       id="pathBannerLetterR"
       inkscape:connector-curvature="0" />
    <text
       transform="scale(1.0040897,0.99592695)"
       xml:space="preserve"
       style="font-style:normal;font-weight:normal;font-size:18.74300766px;line-height:1.25;font-family:sans-serif;letter-spacing:0px;word-spacing:0px;display:inline;opacity:1;fill:#ffffff;fill-opacity:1;stroke:none;stroke-width:1.00408971;shape-rendering:crispEdges"
       x="530.7027"
       y="466.17847"
       id="txtGISTech"><tspan
         style="stroke-width:1.00408971"
         sodipodi:role="line"
         id="tspan6982"
         x="530.7027"
         y="466.17847">GIS TECH</tspan></text>
  </g>
  <g
     inkscape:groupmode="layer"
     id="layer4"
     inkscape:label="grpWordTrend"
     style="display:none">
    <text
       inkscape:label="#txtTrendLetterN"
       id="txtTrendLetterN"
       y="419.23248"
       x="810.4632"
       style="font-style:normal;font-weight:normal;font-size:86.66666412px;line-height:1.25;font-family:sans-serif;letter-spacing:0px;word-spacing:0px;fill:#135eab;fill-opacity:1;stroke:none"
       xml:space="preserve"><tspan
         y="419.23248"
         x="810.4632"
         id="tspan7100"
         sodipodi:role="line">N</tspan></text>
    <text
       xml:space="preserve"
       style="font-style:normal;font-weight:normal;font-size:86.66666412px;line-height:1.25;font-family:sans-serif;letter-spacing:0px;word-spacing:0px;fill:#135eab;fill-opacity:1;stroke:none"
       x="681.11853"
       y="421.17023"
       id="txtTrendLetterE"
       inkscape:label="#txtTrendLetterE"><tspan
         sodipodi:role="line"
         id="tspan7096"
         x="681.11853"
         y="421.17023">E</tspan></text>
    <text
       inkscape:label="#txtTrendLetterR"
       id="txtTrendLetterR"
       y="420.68579"
       x="547.41388"
       style="font-style:normal;font-weight:normal;font-size:86.66666412px;line-height:1.25;font-family:sans-serif;letter-spacing:0px;word-spacing:0px;fill:#135eab;fill-opacity:1;stroke:none"
       xml:space="preserve"><tspan
         y="420.68579"
         x="547.41388"
         id="tspan7092"
         sodipodi:role="line">R</tspan></text>
    <text
       xml:space="preserve"
       style="font-style:normal;font-weight:normal;font-size:86.66666412px;line-height:1.25;font-family:sans-serif;letter-spacing:0px;word-spacing:0px;fill:#135eab;fill-opacity:1;stroke:none"
       x="416.13144"
       y="419.23248"
       id="txtTrendLetterT"
       inkscape:label="#txtTrendLetterT"><tspan
         sodipodi:role="line"
         id="tspan7088"
         x="416.13144"
         y="419.23248">T</tspan></text>
    <text
       xml:space="preserve"
       style="font-style:normal;font-weight:normal;font-size:86.66666412px;line-height:1.25;font-family:sans-serif;letter-spacing:0px;word-spacing:0px;fill:#135eab;fill-opacity:1;stroke:none"
       x="956.76318"
       y="419.23248"
       id="txtTrendLetterD"
       inkscape:label="#txtTrendLetterD"><tspan
         sodipodi:role="line"
         id="tspan7104"
         x="956.76318"
         y="419.23248">D</tspan></text>
  </g>
  <g
     inkscape:groupmode="layer"
     id="layer5"
     inkscape:label="grpWordVirus"
     style="display:none">
    <text
       inkscape:label="#txtVirusLetterS"
       id="txtVirusLetterS"
       y="419.23248"
       x="952.8877"
       style="font-style:normal;font-weight:normal;font-size:86.66666412px;line-height:1.25;font-family:sans-serif;letter-spacing:0px;word-spacing:0px;fill:#135eab;fill-opacity:1;stroke:none"
       xml:space="preserve"><tspan
         y="419.23248"
         x="952.8877"
         id="tspan7125"
         sodipodi:role="line">S</tspan></text>
    <text
       xml:space="preserve"
       style="font-style:normal;font-weight:normal;font-size:86.66666412px;line-height:1.25;font-family:sans-serif;letter-spacing:0px;word-spacing:0px;fill:#135eab;fill-opacity:1;stroke:none"
       x="549.35162"
       y="420.20132"
       id="txtVirusLetterI"
       inkscape:label="#txtVirusLetterI"><tspan
         sodipodi:role="line"
         id="tspan7121"
         x="549.35162"
         y="420.20132">I</tspan></text>
    <text
       inkscape:label="#txtVirusLetterR"
       id="txtVirusLetterR"
       y="420.68579"
       x="684.50958"
       style="font-style:normal;font-weight:normal;font-size:86.66666412px;line-height:1.25;font-family:sans-serif;letter-spacing:0px;word-spacing:0px;fill:#135eab;fill-opacity:1;stroke:none"
       xml:space="preserve"><tspan
         y="420.68579"
         x="684.50958"
         id="tspan7117"
         sodipodi:role="line">R</tspan></text>
    <text
       inkscape:label="#txtVirusLetterU"
       id="txtVirusLetterU"
       y="420.68579"
       x="806.58771"
       style="font-style:normal;font-weight:normal;font-size:86.66666412px;line-height:1.25;font-family:sans-serif;letter-spacing:0px;word-spacing:0px;fill:#135eab;fill-opacity:1;stroke:none"
       xml:space="preserve"><tspan
         y="420.68579"
         x="806.58771"
         id="tspan7113"
         sodipodi:role="line">U</tspan></text>
    <text
       xml:space="preserve"
       style="font-style:normal;font-weight:normal;font-size:86.66666412px;line-height:1.25;font-family:sans-serif;letter-spacing:0px;word-spacing:0px;fill:#135eab;fill-opacity:1;stroke:none"
       x="416.13141"
       y="417.29474"
       id="txtVirusLetterV"
       inkscape:label="#txtVirusLetterV"><tspan
         sodipodi:role="line"
         id="tspan5000"
         x="416.13141"
         y="417.29474">V</tspan></text>
  </g>
  <g
     inkscape:groupmode="layer"
     id="layer1"
     inkscape:label="grpWordTrack">
    <text
       xml:space="preserve"
       style="font-style:normal;font-weight:normal;font-size:86.66666412px;line-height:1.25;font-family:sans-serif;letter-spacing:0px;word-spacing:0px;fill:#135eab;fill-opacity:1;stroke:none"
       x="415.16254"
       y="420.20135"
       id="txtTrackLetterT"
       inkscape:label="#txtTrackLetterT"><tspan
         sodipodi:role="line"
         id="tspan5005"
         x="415.16254"
         y="420.20135">T</tspan></text>
    <text
       xml:space="preserve"
       style="font-style:normal;font-weight:normal;font-size:86.66666412px;line-height:1.25;font-family:sans-serif;letter-spacing:0px;word-spacing:0px;fill:#135eab;fill-opacity:1;stroke:none"
       x="546.44495"
       y="419.23248"
       id="txtTrackLetterR"
       inkscape:label="#txtTrackLetterR"><tspan
         sodipodi:role="line"
         id="tspan5009"
         x="546.44495"
         y="419.23248">R</tspan></text>
    <text
       xml:space="preserve"
       style="font-style:normal;font-weight:normal;font-size:86.66666412px;line-height:1.25;font-family:sans-serif;letter-spacing:0px;word-spacing:0px;fill:#135eab;fill-opacity:1;stroke:none"
       x="681.99988"
       y="418.55612"
       id="txtTrackLetterA"
       inkscape:label="#txtTrackLetterA"><tspan
         sodipodi:role="line"
         id="tspan5013"
         x="681.99988"
         y="418.55612">A</tspan></text>
    <text
       xml:space="preserve"
       style="font-style:normal;font-weight:normal;font-size:86.66666412px;line-height:1.25;font-family:sans-serif;letter-spacing:0px;word-spacing:0px;fill:#135eab;fill-opacity:1;stroke:none"
       x="811.9165"
       y="418.26361"
       id="txtTrackLetterC"
       inkscape:label="#txtTrackLetterC"><tspan
         sodipodi:role="line"
         id="tspan5017"
         x="811.9165"
         y="418.26361">C</tspan></text>
    <text
       xml:space="preserve"
       style="font-style:normal;font-weight:normal;font-size:86.66666412px;line-height:1.25;font-family:sans-serif;letter-spacing:0px;word-spacing:0px;fill:#135eab;fill-opacity:1;stroke:none"
       x="951.09552"
       y="416.90723"
       id="txtTrackLetterK"
       inkscape:label="#txtTrackLetterK"><tspan
         sodipodi:role="line"
         id="tspan5021"
         x="951.09552"
         y="416.90723">K</tspan></text>
  </g>
</svg>
