<?xml version="1.0" encoding="UTF-8" standalone="no"?>
<svg
   xmlns:dc="http://purl.org/dc/elements/1.1/"
   xmlns:cc="http://creativecommons.org/ns#"
   xmlns:rdf="http://www.w3.org/1999/02/22-rdf-syntax-ns#"
   xmlns:svg="http://www.w3.org/2000/svg"
   xmlns="http://www.w3.org/2000/svg"
   xmlns:sodipodi="http://sodipodi.sourceforge.net/DTD/sodipodi-0.dtd"
   xmlns:inkscape="http://www.inkscape.org/namespaces/inkscape"
   version="1.1"
   id="svgGraspLogo"
   viewBox="0 0 1500 800"
   style="shape-rendering:crispEdges"
   enable-background="new"
   sodipodi:docname="GRASPLogo3_cleaned.svg"
   inkscape:version="0.92.3 (2405546, 2018-03-11)">
  <metadata
     id="metadata1629">
    <rdf:RDF>
      <cc:Work
         rdf:about="">
        <dc:format>image/svg+xml</dc:format>
        <dc:type
           rdf:resource="http://purl.org/dc/dcmitype/StillImage" />
        <dc:title></dc:title>
      </cc:Work>
    </rdf:RDF>
  </metadata>
  <defs
     id="defs1627" />
  <sodipodi:namedview
     pagecolor="#ffffff"
     bordercolor="#666666"
     borderopacity="1"
     objecttolerance="10"
     gridtolerance="10"
     guidetolerance="10"
     inkscape:pageopacity="0"
     inkscape:pageshadow="2"
     inkscape:window-width="1920"
     inkscape:window-height="1137"
     id="namedview1625"
     showgrid="false"
     inkscape:zoom="2.0528233"
     inkscape:cx="627.85278"
     inkscape:cy="403.34691"
     inkscape:window-x="-8"
     inkscape:window-y="-8"
     inkscape:window-maximized="1"
     inkscape:current-layer="grpWordGrasp" />
  <path
     d="M 363.09547,302.26099 H 1063.107 v 188.7842 H 363.09547 Z"
     id="pathRectBackground"
     style="display:inline;fill:#055eaa;stroke-width:8.0861845"
     inkscape:connector-curvature="0" />
  <path
     d="m 754.45024,327.49669 c 6.59426,3.84303 11.45236,6.67595 17.87546,13.25319 6.4233,6.57731 10.3234,14.62799 12.8123,21.6229 2.4974,6.98737 0.6225,13.32702 0.862,22.18277 0.231,8.86331 0.6948,17.98759 -3,28.81046 -3.6863,10.83041 -8.6774,18.08317 -18,25.83007 -9,6.95425 -17,12.91503 -37,16.88889 -14.7537,2.30888 -25,1.98692 -42,0 -2.50603,2.39241 -7.15948,10.9023 1,12.91503 12,0 24,2 37,0 15,-1.98693 19.66082,-3.21141 28,-5.96078 8.33904,-2.74175 14.9774,-6.75548 23,-12.91504 8.0396,-6.15948 14.1597,-14.07894 18,-21.85621 3.8488,-7.76962 6.9994,-13.22983 8,-20.86274 0.9922,-7.63301 0.3593,-14.07132 0,-21.85621 -0.3591,-7.78481 -0.417,-16.29367 -3,-23.84314 -2.35871,-7.14422 -3.86127,-12.5296 -8.329,-18.82938 -4.70835,-6.58226 -10.4349,-12.54439 -17.0117,-17.71151 -6.4061,-4.9291 -10.39925,-8.09665 -15.6593,-8.165 -5.25994,-0.0755 -6,3.97386 -6,7.94772 -1.07767,2.62029 -3.14411,-1.30171 3.45024,2.54898 z"
     id="pathSwoosh"
     style="display:inline;fill:#66c6dd;stroke-width:8.05971622" />
  <path
     d="M 387.39421,331.63281 H 506.20249 V 439.2736 H 387.40278 Z"
     id="pathRectG"
     class="letterRect"
     style="display:inline;fill:#ffffff;stroke-width:8.0861845"
     inkscape:connector-curvature="0" />
  <path
     d="m 520.58845,332.35909 h 118.79967 v 107.6408 H 520.59697 Z"
     id="pathRectR"
     class="letterRect"
     style="display:inline;fill:#ffffff;stroke-width:8.0861845" />
  <path
     style="display:inline;opacity:1;fill:#ffffff;fill-opacity:1;stroke:none;stroke-width:1.8060286;stroke-opacity:1"
     d="M 772,387 A 57.987948,54.842357 0 0 1 714.01205,441.84236 57.987948,54.842357 0 0 1 656.0241,387 57.987948,54.842357 0 0 1 714.01205,332.15765 57.987948,54.842357 0 0 1 772,387 Z"
     id="pathCircleA" />
  <path
     d="M 784.0603,333.08538 H 902.86 v 107.6408 H 784.0603 Z"
     id="pathRectS"
     class="letterRect"
     style="display:inline;fill:#ffffff;stroke-width:8.0861845" />
  <path
     style="display:inline;fill:#ffffff;stroke-width:8.08618546"
     id="pathRectP"
     class="letterRect"
     d="m 920,332.35919 h 118.7997 V 440 H 920 Z" />
  <g
     id="gAnalysis"
     style="display:inline;opacity:0">
    <circle
       id="pathAnalysisYellowCircle"
       class="analysis"
       r="50.061893"
       cy="385.64093"
       cx="445.6348"
       style="display:inline;fill:#fbbd5e;stroke-width:0.19860944" />
    <path
       id="pathAnalysisBlueDottedCircle"
       class="analysis"
       d="m 442.50589,425.84663 v -3.12889 c 0.93863,0 2.03376,0 2.97239,-0.1565 l 0.1565,3.12889 c -0.93882,0.1565 -2.03376,0.1565 -3.12889,0.1565 z m -3.12889,0 c -1.09514,0 -2.19027,-0.1565 -3.2854,-0.31281 l 0.46931,-3.12889 c 0.93863,0.1565 2.03376,0.31281 2.97239,0.31281 z m 9.69949,-0.46931 -0.46932,-3.12889 c 0.93863,-0.15651 2.03376,-0.31281 2.97239,-0.62582 l 0.62582,3.12889 c -1.09513,0.31301 -2.03376,0.46951 -3.12889,0.62582 z m -16.11378,-0.46931 c -1.09514,-0.31281 -2.03376,-0.46932 -3.1289,-0.78213 l 0.93863,-2.97239 c 0.93863,0.31281 1.87726,0.62582 2.97239,0.78213 z m 22.37136,-0.93863 -0.93862,-2.97239 c 0.93862,-0.31281 1.87725,-0.62582 2.81588,-0.93863 l 1.09513,2.97239 c -0.93863,0.31281 -1.87725,0.62582 -2.97239,0.93863 z m -28.62895,-0.93863 c -0.93863,-0.46932 -2.03376,-0.78213 -2.97239,-1.25164 l 1.40794,-2.81588 c 0.93863,0.46931 1.87726,0.78212 2.81589,1.25163 z m 34.73024,-1.40794 -1.40795,-2.81589 c 0.93863,-0.46931 1.72095,-0.93863 2.65958,-1.40794 l 1.56445,2.65958 c -0.93863,0.62562 -1.87726,1.09493 -2.81608,1.56425 z m -40.51871,-1.40795 c -0.93863,-0.46931 -1.87726,-1.09513 -2.81589,-1.72095 l 1.72095,-2.65958 c 0.78213,0.62582 1.72095,1.09514 2.50308,1.56445 z m 45.99437,-1.87745 -1.72095,-2.50308 c 0.78212,-0.62581 1.72095,-1.09513 2.34657,-1.72095 l 2.03376,2.50308 c -0.78213,0.46951 -1.72075,1.09513 -2.65938,1.72095 z m -51.46984,-1.87726 c -0.78212,-0.62582 -1.72095,-1.40794 -2.50307,-2.19026 l 2.19026,-2.34657 c 0.78213,0.62582 1.56445,1.40794 2.34657,2.03376 z m 56.63249,-2.19026 -2.19026,-2.19027 c 0.78212,-0.62582 1.40794,-1.40794 2.19026,-2.19026 l 2.34657,2.19026 c -0.78232,0.78233 -1.56444,1.56445 -2.34657,2.19027 z m -61.32583,-2.19007 c -0.78212,-0.78212 -1.40794,-1.56445 -2.19026,-2.50307 l 2.50307,-2.03376 c 0.62582,0.78212 1.25164,1.56444 2.03376,2.34657 z m 65.70616,-2.50327 -2.50307,-1.87726 c 0.62582,-0.78212 1.25163,-1.56445 1.72095,-2.34657 l 2.65958,1.72095 c -0.62602,0.78213 -1.25164,1.72075 -1.87746,2.50288 z m -69.77368,-2.50308 c -0.62582,-0.93863 -1.25164,-1.87725 -1.72095,-2.81588 l 2.65958,-1.56445 c 0.46931,0.93863 1.09513,1.72095 1.56445,2.50308 z m 73.37189,-2.81588 -2.65958,-1.56445 c 0.46931,-0.93863 0.93863,-1.72095 1.40794,-2.65958 l 2.81589,1.40795 c -0.46912,0.93882 -0.93843,1.87745 -1.56425,2.81608 z m -76.65709,-2.81608 c -0.46931,-0.93863 -0.93863,-2.03377 -1.25163,-2.97239 l 2.81588,-1.09514 c 0.31281,0.93863 0.78212,1.87726 1.25164,2.81589 z m 79.47297,-3.1287 -2.97238,-1.09513 c 0.31281,-0.93863 0.62581,-1.87726 0.93862,-2.81589 l 2.97239,0.93863 c -0.1563,0.93863 -0.46931,2.03356 -0.93863,2.97239 z m -81.81974,-2.97259 c -0.31281,-1.09513 -0.62581,-2.03376 -0.78212,-3.12889 l 2.97239,-0.62582 c 0.1565,0.93863 0.46931,1.87726 0.78212,2.97239 z m 83.85351,-3.12869 -2.97239,-0.62582 c 0.1565,-0.93863 0.46931,-2.03376 0.62581,-2.97239 l 3.1289,0.46932 c -0.46932,0.93862 -0.62582,2.03376 -0.78232,3.12889 z m -85.26145,-3.12889 c -0.1565,-1.09514 -0.31281,-2.19027 -0.46931,-3.2854 l 3.12889,-0.15651 c 0,0.93863 0.1565,2.03376 0.31281,2.97239 z m 86.20007,-3.2854 -3.12889,-0.15651 c 0,-0.93862 0.1565,-2.03376 0.1565,-2.97238 v -0.15651 h 3.1289 v 0.15651 c -0.15651,0.93882 -0.15651,2.03376 -0.15651,3.12889 z m -86.04356,-3.12889 h -0.62582 c 0,-1.09514 0,-2.19027 0.1565,-3.1289 l 3.12889,0.15651 c 0,0.93862 -0.1565,1.87725 -0.1565,2.97239 z m 82.91487,-3.44171 c -0.15651,-0.93863 -0.15651,-2.03376 -0.31281,-2.97239 l 3.12889,-0.46931 c 0.15651,1.09513 0.31281,2.19026 0.31281,3.2854 z m -80.09899,-2.65958 -3.12889,-0.46931 c 0.1565,-1.09513 0.31281,-2.19027 0.62582,-3.12889 l 3.12889,0.62581 c -0.31281,1.09514 -0.46932,2.03376 -0.62582,2.97239 z m 79.16016,-3.2852 c -0.1565,-0.93862 -0.46931,-1.87725 -0.78212,-2.97238 l 2.97239,-0.93863 c 0.31281,1.09513 0.62582,2.03376 0.78212,3.12889 z m -77.75222,-2.50307 -2.97239,-0.93863 c 0.31281,-1.09513 0.62582,-2.03376 1.09514,-3.12889 l 2.97238,1.09513 c -0.46931,1.09493 -0.78212,2.03376 -1.09513,2.97239 z m 75.87497,-3.12889 c -0.31281,-0.93863 -0.78213,-1.87726 -1.25164,-2.81589 l 2.81588,-1.40794 c 0.46932,0.93863 0.93863,2.03376 1.25164,2.97239 z m -73.6847,-2.50308 -2.81589,-1.40794 c 0.46932,-0.93863 0.93863,-1.87726 1.56445,-2.81589 l 2.65958,1.56445 c -0.62582,0.78213 -1.09533,1.72075 -1.40814,2.65938 z m 71.02512,-2.97239 c -0.46932,-0.93863 -1.09514,-1.72095 -1.56445,-2.50307 l 2.50307,-1.72095 c 0.62582,0.93863 1.25164,1.87725 1.72096,2.65958 z m -68.05273,-2.19026 -2.65958,-1.72095 c 0.62582,-0.93863 1.25163,-1.72095 1.87725,-2.65958 l 2.50308,1.87725 c -0.62562,0.78233 -1.25144,1.56465 -1.72075,2.50328 z m 64.76753,-2.65958 c -0.62582,-0.78212 -1.25164,-1.56445 -2.03376,-2.34657 l 2.34657,-2.19027 c 0.78212,0.78213 1.40794,1.56445 2.19026,2.50308 z m -61.01282,-2.19007 -2.34677,-2.19026 c 0.78212,-0.78213 1.56445,-1.56445 2.34657,-2.34657 l 2.19026,2.34657 c -0.78212,0.78212 -1.56424,1.56444 -2.19006,2.19026 z m 56.78879,-2.34677 c -0.78212,-0.62581 -1.56444,-1.40794 -2.34657,-2.03376 l 1.87726,-2.50307 c 0.78212,0.62582 1.72095,1.40794 2.50307,2.03376 z m -52.40846,-1.72075 -2.03376,-2.50307 c 0.78212,-0.62582 1.72095,-1.25164 2.65958,-1.87726 l 1.72095,2.50307 c -0.78232,0.62562 -1.56445,1.25144 -2.34677,1.87726 z m 47.71512,-1.87745 c -0.78212,-0.62582 -1.72095,-1.09514 -2.50307,-1.56445 l 1.56444,-2.65958 c 0.93863,0.46931 1.87726,1.09513 2.81589,1.72095 z m -42.70897,-1.56445 -1.56445,-2.65958 c 0.93863,-0.46931 1.87726,-1.09513 2.81589,-1.56445 l 1.40794,2.81589 c -0.93843,0.46951 -1.87706,0.93883 -2.65938,1.40814 z m 37.54652,-1.56445 c -0.93863,-0.31281 -1.87726,-0.78212 -2.81589,-1.09513 l 1.09514,-2.97239 c 0.93862,0.46932 2.03376,0.78213 2.97238,1.25164 z m -32.22736,-0.93863 -1.09514,-2.97238 c 0.93863,-0.46932 2.03376,-0.78213 3.1289,-1.09514 l 0.93863,2.97239 c -1.09514,0.31301 -2.03377,0.62582 -2.97239,1.09513 z m 26.59539,-1.09513 c -0.93863,-0.31281 -1.87726,-0.62582 -2.97239,-0.78212 l 0.62582,-3.12889 c 1.09513,0.1565 2.03376,0.46931 3.12889,0.78212 z m -20.80692,-0.78212 -0.78213,-2.97239 c 1.09514,-0.31281 2.19027,-0.46931 3.1289,-0.62582 l 0.46931,3.12889 c -0.93882,0 -1.87745,0.31281 -2.81608,0.46932 z m 14.86194,-0.62582 c -0.93863,-0.1565 -2.03376,-0.31281 -2.97239,-0.31281 l 0.15651,-3.12889 c 1.09513,0 2.19026,0.1565 3.2854,0.31281 z m -8.91716,-0.31281 -0.31281,-3.12889 c 1.09513,-0.15651 2.19026,-0.15651 3.28539,-0.15651 v 3.1289 c -0.93882,0.1565 -2.03396,0.1565 -2.97258,0.1565 z"
       style="display:inline;fill:#183651;stroke-width:0.19860944"
       inkscape:connector-curvature="0" />
    <g
       id="gAnalysisBarChart"
       class="analysis"
       style="display:inline">
      <path
         style="display:inline;visibility:hidden;fill:#4fbf9f;stroke-width:0.19860944;shape-rendering:crispEdges"
         d="m 437.49974,379.07014 h 30.0369 L 486.31,392.99365 v -13.92351 h 7.82203 v -41.92665 h -56.63229 z"
         id="pathAnalysisBarChartGreenBox"
         inkscape:connector-curvature="0" />
      <path
         style="display:inline;visibility:hidden;fill:#183651;stroke-width:0.19860944"
         d="m 486.31,394.5581 c -0.31281,0 -0.62582,-0.1565 -0.93863,-0.31281 l -18.30385,-13.4542 h -29.56778 c -0.93863,0 -1.56445,-0.62582 -1.56445,-1.56445 v -42.08315 c 0,-0.93863 0.62582,-1.56445 1.56445,-1.56445 h 56.63249 c 0.93863,0 1.56445,0.62582 1.56445,1.56445 v 41.92685 c 0,0.93862 -0.62582,1.56444 -1.56445,1.56444 h -6.25779 v 12.20257 c 0,0.62582 -0.31281,1.09513 -0.78212,1.40794 -0.31301,0.15631 -0.46951,0.31281 -0.78232,0.31281 z m -47.24601,-17.05221 h 28.47265 c 0.31281,0 0.62582,0.1565 0.93863,0.31281 l 16.27008,12.04606 v -10.63812 c 0,-0.93863 0.62582,-1.56444 1.56445,-1.56444 h 6.25778 v -38.95427 h -53.50359 z"
         id="pathAnalysisBarChartOuterBox"
         inkscape:connector-curvature="0" />
      <path
         style="display:inline;visibility:hidden;fill:#ffffff;stroke-width:0.19860944"
         d="m 443.75733,372.81255 v -29.41128 h 44.11691 v 29.41128 h -7.82203 v 7.66573 l -10.32531,-7.66573 z"
         id="pathAnalysisBarChartWhiteCalloutBox"
         inkscape:connector-curvature="0" />
      <path
         style="display:inline;visibility:hidden;fill:#f06151;stroke-width:0.19860944"
         d="m 451.26654,347.62509 h 5.94478 v 18.61666 h -5.94478 z"
         id="pathAnalysisBarChartRedRect"
         inkscape:connector-curvature="0" />
      <rect
         x="462.84351"
         y="352.31845"
         style="display:inline;visibility:hidden;fill:#fbbd5e;stroke-width:0.19860944"
         width="5.9447775"
         height="14.07982"
         id="pathAnalysisBarChartYellowRect" />
      <rect
         x="474.42026"
         y="358.41971"
         style="display:inline;visibility:hidden;fill:#4fbf9f;stroke-width:0.19860944"
         width="5.9447775"
         height="7.9785385"
         id="pathAnalysisBarChartGreenRect" />
      <rect
         x="447.98135"
         y="366.39825"
         style="display:inline;visibility:hidden;fill:#e1e6e7;stroke-width:0.19860944"
         width="35.512558"
         height="2.5030746"
         id="pathAnalysisBarChartHorizontalRect" />
    </g>
    <g
       id="gAnalysisPieChart"
       class="analysis"
       style="display:inline">
      <circle
         style="display:inline;fill:#ffffff;stroke-width:0.19860944"
         cx="433.27573"
         cy="397.99982"
         r="36.138378"
         id="pathAnalysisPieChartWhiteCircle" />
      <path
         style="display:inline;fill:#183651;stroke-width:0.19860944"
         d="m 433.27571,435.70263 c -20.80692,0 -37.70282,-16.89591 -37.70282,-37.70283 0,-20.80692 16.8959,-37.70282 37.70282,-37.70282 20.80693,0 37.70283,16.8959 37.70283,37.70282 0,20.80692 -17.05241,37.70283 -37.70283,37.70283 z m 0,-72.12025 c -19.08597,0 -34.57393,15.48796 -34.57393,34.57393 0,19.08597 15.48796,34.57393 34.57393,34.57393 19.08597,0 34.57394,-15.48796 34.57394,-34.57393 0,-19.08597 -15.64427,-34.57393 -34.57394,-34.57393 z"
         id="pathAnalysisPieChartBlueCircle"
         inkscape:connector-curvature="0" />
      <path
         style="display:inline;fill:#e1e6e7;stroke-width:0.19860944"
         d="m 433.27571,368.27571 v 0 c -16.42659,0 -29.88059,13.45421 -29.88059,29.8806 0,8.29154 3.2854,15.64426 8.76086,21.11973 l 21.11973,-21.11973 z"
         id="pathAnalysisPieChartGrayPie"
         inkscape:connector-curvature="0" />
      <path
         style="display:inline;fill:#fbbd5e;stroke-width:0.19860944"
         d="M 454.23914,419.11973 C 459.7146,413.64427 463,406.29135 463,398 h -29.72429 z"
         id="pathAnalysisPieChartYellowPie"
         inkscape:connector-curvature="0" />
      <path
         style="display:inline;fill:#f06151;stroke-width:0.19860944"
         d="m 462.9998,397.9998 v 0 c 0,-16.42659 -13.4542,-29.88059 -29.88059,-29.88059 v 29.88059 z"
         id="pathAnalysisPieChartRedPie"
         inkscape:connector-curvature="0" />
      <path
         style="display:inline;fill:#2ca0da;stroke-width:0.19860944"
         d="m 433.27571,427.88039 c 8.29155,0 15.64427,-3.28539 21.11974,-8.76086 l -21.11974,-21.11973 -21.11992,21.11993 c 5.31915,5.47547 12.82838,8.76066 21.11992,8.76066 z"
         id="pathAnalysisPieChartBluePie"
         inkscape:connector-curvature="0" />
    </g>
  </g>
  <g
     id="gMap"
     style="display:inline;opacity:0">
    <circle
       id="pathMapBlueCircle"
       r="51"
       cy="386.26044"
       cx="579.72699"
       style="display:inline;fill:#4786c6;stroke-width:0.19921875" />
    <g
       id="gMapFoldout"
       style="display:inline">
      <polygon
         id="pathMapFoldoutRect"
         points="56.144,160.716 189.392,201.004 322.616,160.716 455.864,201.004 455.864,484.104 322.616,443.836 189.392,484.104 56.144,443.836 "
         style="fill:#fdfeff"
         transform="matrix(0.19921875,0,0,0.19921875,528.72702,335.26044)" />
      <polygon
         id="pathMapFoldoutSmallRect"
         points="189.388,222.048 189.392,222.048 138.468,206.652 "
         style="fill:#fdfeff"
         transform="matrix(0.19921875,0,0,0.19921875,528.72702,335.26044)" />
      <polygon
         id="pathMapFoldoutSmallPoly"
         points="78.476,239.568 78.476,188.516 138.468,206.652 78.468,188.512 78.468,239.56 "
         style="fill:#fdfeff"
         transform="matrix(0.19921875,0,0,0.19921875,528.72702,335.26044)" />
      <polygon
         id="pathMapFoldoutVerticalPart"
         points="322.62,181.76 322.62,181.764 375.688,197.808 428.096,213.652 433.532,215.296 433.532,351.628 433.532,373.364 433.532,456.308 433.54,456.312 433.54,215.292 "
         style="fill:#fdfeff"
         transform="matrix(0.19921875,0,0,0.19921875,528.72702,335.26044)" />
      <polygon
         id="pathMapFoldoutSmallTriangleOrange"
         points="375.688,197.808 322.62,181.764 322.62,220.496 "
         style="fill:#f7cfa3"
         transform="matrix(0.19921875,0,0,0.19921875,528.72702,335.26044)" />
      <polygon
         id="pathMapFoldoutVerticalPartOrange"
         points="188.436,352.076 189.396,351.128 189.396,222.048 189.392,222.048 189.388,222.048 138.468,206.652 78.476,188.516 78.476,239.568 177.416,362.1 "
         style="fill:#f7cfa3"
         transform="matrix(0.19921875,0,0,0.19921875,528.72702,335.26044)" />
      <polygon
         style="fill:#f0b97c"
         points="189.396,222.048 189.396,351.128 321.4,221.016 322.62,220.496 322.62,181.764 322.616,181.764 "
         id="pathMapFoldoutVerticalPartCenter"
         transform="matrix(0.19921875,0,0,0.19921875,528.72702,335.26044)" />
      <polygon
         style="fill:#fdfeff"
         points="99.16,435.784 78.476,429.536 78.476,271.764 78.468,271.752 78.468,429.54 99.156,435.792 "
         id="pathMapFoldoutVerticalRectYellow"
         transform="matrix(0.19921875,0,0,0.19921875,528.72702,335.26044)" />
      <polygon
         id="pathMapFoldoutYellowTriangle"
         points="428.096,213.652 323.376,254.556 322.62,255.284 322.62,272.2 322.88,272.204 433.532,351.628 433.532,215.296 "
         style="fill:#f7cfa3"
         transform="matrix(0.19921875,0,0,0.19921875,528.72702,335.26044)" />
      <polygon
         id="pathMapFoldoutVerticalRect1"
         points="78.476,271.764 78.476,429.536 99.16,435.784 162.092,373.132 "
         style="fill:#f7cfa3"
         transform="matrix(0.19921875,0,0,0.19921875,528.72702,335.26044)" />
      <polygon
         style="fill:#f0b97c"
         points="305.58,271.764 322.62,272.2 322.62,255.284 "
         id="pathMapFoldoutSmallPoly1"
         transform="matrix(0.19921875,0,0,0.19921875,528.72702,335.26044)" />
      <polygon
         style="fill:#fdfeff"
         points="433.532,456.312 433.532,456.308 322.62,422.78 189.396,463.044 137.952,447.504 137.944,447.512 189.388,463.06 322.612,422.792 "
         id="pathMapFoldoutSmallGreen"
         transform="matrix(0.19921875,0,0,0.19921875,528.72702,335.26044)" />
      <polygon
         id="pathMapFoldoutSmallGreen2"
         points="433.532,373.364 322.88,294.096 322.62,294.064 322.62,422.78 433.532,456.308 "
         style="fill:#7ec359"
         transform="matrix(0.19921875,0,0,0.19921875,528.72702,335.26044)" />
      <polygon
         id="pathMapFoldoutSmallGreen1"
         points="189.396,463.044 189.396,393.552 137.952,447.504 "
         style="fill:#7ec359"
         transform="matrix(0.19921875,0,0,0.19921875,528.72702,335.26044)" />
      <polygon
         style="fill:#6bbe49"
         points="322.62,294.064 288.28,289.856 189.396,393.552 189.396,463.044 322.62,422.78 "
         id="pathMapFoldoutVerticalGreen1"
         transform="matrix(0.19921875,0,0,0.19921875,528.72702,335.26044)" />
      <rect
         id="pathMapFoldoutSmallWhite"
         height="8.0723438"
         width="0.0015937501"
         style="fill:#fdfeff;stroke-width:0.19921875"
         y="419.21121"
         x="552.34399" />
      <rect
         id="pathMapFoldoutSmallWhite1"
         height="6.414844"
         width="0.002390625"
         style="fill:#fdfeff;stroke-width:0.19921875"
         y="382.98608"
         x="544.35931" />
      <polygon
         id="pathMapFoldoutVerticalYellow"
         points="189.396,351.128 188.436,352.076 177.416,362.1 78.476,239.568 78.476,271.764 162.092,373.132 99.16,435.784 137.952,447.504 189.396,393.552 "
         style="fill:#fdfeff"
         transform="matrix(0.19921875,0,0,0.19921875,528.72702,335.26044)" />
      <polygon
         id="pathMapFoldoutDiagWhite1"
         points="323.376,254.556 428.096,213.652 375.688,197.808 322.62,220.496 322.62,255.284 "
         style="fill:#fdfeff"
         transform="matrix(0.19921875,0,0,0.19921875,528.72702,335.26044)" />
      <polygon
         id="pathMapFoldoutDiagWhite"
         points="433.532,373.364 433.532,351.628 322.88,272.204 322.62,272.2 322.62,294.064 322.88,294.096 "
         style="fill:#fdfeff"
         transform="matrix(0.19921875,0,0,0.19921875,528.72702,335.26044)" />
      <polygon
         style="fill:#e8e7e8"
         points="305.58,271.764 322.62,255.284 322.62,220.496 321.4,221.016 189.396,351.128 189.396,393.552 288.28,289.856 322.62,294.064 322.62,272.2 "
         id="pathMapFoldoutDiagWhite2"
         transform="matrix(0.19921875,0,0,0.19921875,528.72702,335.26044)" />
    </g>
    <g
       id="gMapMarker"
       style="display:inline">
      <path
         style="display:inline;fill:#f1592f;stroke-width:0.19921875"
         d="m 591.03707,358.30846 c 0,8.98715 -16.27299,31.7985 -16.27299,31.7985 0,0 -16.27298,-22.81135 -16.27298,-31.7985 0,-8.98716 7.28583,-16.27299 16.27298,-16.27299 8.98716,0 16.27299,7.28583 16.27299,16.27299 z"
         id="pathMapMarkerOrangeBalloon"
         inkscape:connector-curvature="0" />
      <circle
         style="display:inline;fill:#fdfeff;stroke-width:0.19921875"
         cx="574.7641"
         cy="358.30844"
         r="9.1513128"
         id="pathMapMarkerWhiteCircle" />
      <g
         style="display:inline"
         id="pathMapMarkerWhiteCircle1"
         transform="matrix(0.19921875,0,0,0.19921875,528.72702,335.26044)" />
    </g>
  </g>
  <g
     id="gEpidem"
     style="display:inline;opacity:0">
    <circle
       id="pathEpidemPinkCircle"
       r="51.061893"
       cy="388.02393"
       cx="843.32849"
       style="display:inline;fill:#ffaaaa;fill-opacity:1;stroke-width:0.20257673" />
    <path
       id="pathEpidemYelloMagGlass"
       d="m 885.06215,377.39577 c 0.0126,-12.32625 -9.97025,-22.3271 -22.29506,-22.33969 -12.32481,-0.0126 -22.3271,9.97025 -22.33969,22.29506 -0.01,10.18509 6.87654,19.08422 16.73811,21.63113 v 24.44307 c 0,3.08112 2.49814,5.57942 5.57942,5.57942 3.08129,0 5.57943,-2.49814 5.57943,-5.57942 v -24.44307 c 9.84722,-2.53862 16.73222,-11.41687 16.73779,-21.5865 z"
       style="display:inline;fill:#ffddba;stroke-width:0.15937114"
       inkscape:connector-curvature="0" />
    <circle
       id="pathEpidemBlueCircle"
       r="16.738113"
       cy="377.39575"
       cx="862.74475"
       style="display:inline;fill:#3689c9;stroke-width:0.15937114" />
    <g
       transform="matrix(0.15937114,0,0,0.15937114,803.46413,350.89378)"
       id="gEpidemMagGlassJoint"
       style="display:inline;opacity:0.13999999">
      <path
         id="path1972"
         d="m 371.966,306.325 c -11.815,-0.044 -23.578,-1.584 -35.009,-4.586 v 8.752 c 22.939,6.118 47.078,6.118 70.017,0 v -8.752 c -11.43,3.002 -23.193,4.542 -35.008,4.586 z"
         inkscape:connector-curvature="0" />
    </g>
    <g
       style="display:inline"
       transform="matrix(0.15937114,0,0,0.15937114,803.46413,350.89378)"
       id="gEpidemBlueCircleBugs">
      <circle
         id="circle1976"
         r="17.504"
         cy="157.539"
         cx="140.034"
         style="fill:#3689c9" />
      <circle
         id="circle1978"
         r="17.504"
         cy="52.513"
         cx="201.299"
         style="fill:#3689c9" />
      <circle
         id="circle1980"
         r="17.504"
         cy="490.12"
         cx="148.786"
         style="fill:#3689c9" />
    </g>
    <g
       style="display:inline"
       transform="matrix(0.15937114,0,0,0.15937114,803.46413,350.89378)"
       id="gEpidemBigBlueBug">
      <rect
         id="rect1986"
         height="8.7519999"
         width="17.504"
         style="fill:#76bdf6"
         y="218.80299"
         x="398.22198" />
      <path
         id="pathEpidemBigBlueBug"
         d="m 48.137,39.385 c 7.247,0 13.128,-5.881 13.128,-13.128 v -8.752 c 0,-2.416 1.96,-4.376 4.376,-4.376 H 100.65 V 4.376 H 65.641 c -7.247,0 -13.128,5.881 -13.128,13.128 v 8.752 c 0,2.416 -1.96,4.376 -4.376,4.376 -7.247,0 -13.128,5.881 -13.128,13.128 V 57.335 C 15.132,59.515 0.061,76.275 0,96.274 v 35.009 c 0.228,21.749 18.038,39.201 39.796,38.973 18.712,-0.193 34.711,-13.531 38.256,-31.91 0.481,-2.319 0.718,-4.691 0.718,-7.063 V 96.274 c 0,-2.372 -0.236,-4.744 -0.718,-7.063 C 74.901,72.188 60.968,59.235 43.761,57.336 V 43.761 c 0,-2.416 1.96,-4.376 4.376,-4.376 z"
         style="fill:#76bdf6"
         inkscape:connector-curvature="0" />
      <rect
         id="rect1988"
         height="8.7519999"
         width="17.504"
         style="fill:#76bdf6"
         y="148.786"
         x="415.72699" />
      <rect
         id="rect1990"
         height="8.7519999"
         width="17.504"
         style="display:none;fill:#76bdf6"
         y="131.282"
         x="345.70901" />
    </g>
    <path
       id="pathEpidemBigRedBug"
       d="m 839.66018,407.38479 h 3.55685 v -1.39481 h -3.55685 c -0.0279,-0.24129 -0.0725,-0.47987 -0.13243,-0.71415 -0.20639,-0.90666 -0.61374,-1.75611 -1.19258,-2.48427 l 2.58596,-2.58468 -0.98762,-0.98763 -2.58469,2.58596 c -1.10045,-0.89694 -2.47583,-1.38924 -3.89582,-1.39482 h -0.69741 v -3.48704 h -1.39482 v 3.48704 h -5.57942 v -3.48704 h -1.39482 v 3.48704 h -5.5791 v -3.48704 h -1.39482 v 3.48704 h -0.69741 c -1.41999,0.006 -2.79521,0.49804 -3.89582,1.39482 l -2.58469,-2.58596 -0.98762,0.98763 2.58596,2.58468 c -0.73646,0.91925 -1.19545,2.02815 -1.32374,3.19842 h -3.55812 v 1.39481 h 3.55828 c 0.12829,1.17027 0.58728,2.27917 1.32374,3.19842 l -2.58596,2.58468 0.98762,0.98763 2.58468,-2.58596 c 1.10046,0.89694 2.47584,1.38924 3.89583,1.39482 h 0.69741 v 3.48704 h 1.39482 v -3.48704 h 5.57942 v 3.48704 h 1.39482 v -3.48704 h 5.57942 v 3.48704 h 1.39482 v -3.48704 h 0.69741 c 1.41999,-0.006 2.79521,-0.49804 3.89582,-1.39482 l 2.58468,2.58596 0.98763,-0.98763 -2.58596,-2.58468 c 0.57884,-0.72816 0.98619,-1.57761 1.19258,-2.48427 0.0594,-0.23444 0.10406,-0.47286 0.13195,-0.71415 z"
       style="display:inline;fill:#e84f4f;stroke-width:0.15937114"
       inkscape:connector-curvature="0" />
    <g
       style="display:inline"
       transform="matrix(0.15937114,0,0,0.15937114,803.46413,350.89378)"
       id="gEpidemSmallBlueBugs">
      <rect
         id="rect1996"
         height="8.7519999"
         width="17.504"
         style="fill:#76bdf6"
         y="323.82901"
         x="170.66701" />
      <rect
         id="rect1998"
         height="8.7519999"
         width="17.504"
         style="fill:#76bdf6"
         y="367.59"
         x="91.897003" />
      <rect
         id="rect2000"
         height="8.7519999"
         width="17.504"
         style="fill:#76bdf6"
         y="236.308"
         x="21.879999" />
      <rect
         id="rect2002"
         height="8.7519999"
         width="17.504"
         style="fill:#76bdf6"
         y="87.521004"
         x="161.91499" />
      <rect
         id="rect2004"
         height="8.7519999"
         width="17.504"
         style="fill:#76bdf6"
         y="218.80299"
         x="135.658" />
      <rect
         id="rect2006"
         height="8.7519999"
         width="17.504"
         style="fill:#76bdf6"
         y="458.7168"
         x="54.879684" />
      <rect
         id="rect2008"
         height="8.7519999"
         width="17.504"
         style="fill:#76bdf6"
         y="428.85501"
         x="223.17999" />
    </g>
    <g
       transform="matrix(0.15937114,0,0,0.15937114,803.46413,350.89378)"
       id="gEpidemSmallBlueBug2"
       style="display:inline;opacity:0.13999999">
      <ellipse
         id="ellipse2012"
         ry="21.879999"
         rx="8.7519999"
         cy="126.906"
         cx="65.640999" />
    </g>
    <g
       transform="matrix(0.15937114,0,0,0.15937114,803.46413,350.89378)"
       id="gEpidemSmallBlueBug1"
       style="display:inline;opacity:0.13999999">
      <circle
         id="circle2016"
         r="8.7519999"
         cy="96.274002"
         cx="30.632" />
    </g>
    <g
       transform="matrix(0.15937114,0,0,0.15937114,803.46413,350.89378)"
       id="gEpidemSmallRedBug1"
       style="display:inline;opacity:0.13999999">
      <circle
         id="circle2020"
         r="8.7519999"
         cy="332.58099"
         cx="83.144997" />
    </g>
    <g
       transform="matrix(0.15937114,0,0,0.15937114,803.46413,350.89378)"
       id="gEpidemSmallRedBug"
       style="display:inline;opacity:0.13999999">
      <circle
         id="circle2024"
         r="8.7519999"
         cy="367.59"
         cx="144.41" />
    </g>
    <ellipse
       id="pathEpidemMediumRedBug"
       ry="2.7896323"
       rx="6.9742408"
       cy="381.5802"
       cx="855.77051"
       style="display:inline;fill:#e84f4f;stroke-width:0.15937114" />
  </g>
  <g
     id="gGlobe"
     transform="matrix(0.234375,0,0,0.234375,654.96969,328.59969)"
     style="display:inline"
     opacity="0">
    <path
       style="display:inline;fill:#25b6d2"
       d="M 256,0 C 114.616,0 0,114.616 0,256 0,397.384 114.616,512 256,512 397.384,512 512,397.384 512,256 512,114.616 397.384,0 256,0 Z"
       id="pathGlobeBlueCircle" />
    <g
       style="display:inline"
       id="gGlobeContinents">
      <path
         style="fill:#ffffff"
         d="m 212.264,44.728 c -2.8,-3.064 -6.496,-5.176 -10.56,-6.04 -6.944,-1.896 -14.296,-1.6 -14.152,1.192 -6.856,0 -9.72,2.68 -9.856,6.264 -0.272,7.288 10.92,18.4 24.176,18.832 19.776,0.624 13.92,-15.496 10.392,-20.248 z"
         id="path6298" />
      <path
         style="fill:#ffffff"
         d="m 387.312,74.688 -0.592,-0.424 c -3.016,-2.176 -6.08,-4.272 -9.208,-6.296 l -1.432,-0.92 c -2.92,-1.864 -5.88,-3.656 -8.888,-5.384 l -1.68,-0.968 c -3.08,-1.736 -6.208,-3.4 -9.376,-4.992 -0.448,-0.224 -0.888,-0.464 -1.336,-0.688 -7.376,-3.648 -14.944,-6.888 -22.68,-9.696 l -0.488,-0.168 c -3.544,-1.264 -7.128,-2.448 -10.752,-3.552 -1.064,-0.32 -2.144,-0.608 -3.2,-0.912 -2.752,-0.8 -5.52,-1.544 -8.32,-2.232 -1.36,-0.336 -2.728,-0.64 -4.096,-0.944 -2.568,-0.576 -5.144,-1.112 -7.736,-1.6 -1.488,-0.28 -2.976,-0.552 -4.472,-0.8 -2.568,-0.432 -5.152,-0.8 -7.752,-1.144 -1.488,-0.192 -2.976,-0.408 -4.48,-0.568 -2.792,-0.312 -5.6,-0.536 -8.424,-0.744 -1.304,-0.096 -2.6,-0.224 -3.912,-0.296 C 264.336,32.136 260.184,32 256,32 c -4.696,0 -9.344,0.192 -13.968,0.48 -4,1.544 -11.12,5.312 -7.648,11.6 4.696,8.496 17.432,20.256 4.696,22.216 -12.736,1.96 -20.112,10.456 -31.504,10.456 -11.392,0 -40.216,-11.76 -41.56,-3.264 -1.344,8.496 -29.496,23.52 -36.2,22.864 -6.704,-0.656 -10.056,11.76 -28.152,11.76 -5.128,0.096 -10.24,0.704 -15.248,1.808 -11.672,13.528 -21.696,28.4 -29.848,44.304 3.12,0.952 6.432,1.048 9.6,0.28 17.432,-3.92 40.216,-27.44 56.304,-15.68 16.088,11.76 25.472,16.984 24.128,39.2 -1.344,22.216 -5.36,49.648 18.768,61.408 24.128,11.76 9.384,23.52 28.152,31.36 18.768,7.84 44.24,11.76 50.944,16.984 6.704,5.224 18.736,16.976 18.736,16.976 0,0 -17.432,19.6 -10.728,30.056 6.704,10.456 38.88,15.68 36.2,41.816 -2.68,26.136 -22.68,70.752 -22.68,79.896 0,9.144 -1,22.456 -1,22.456 0,0 30.832,-11.76 37.536,-24.8 6.704,-13.04 34.4,-50.088 42.448,-54.008 8.048,-3.92 32.176,-19.6 40.216,-35.28 8.04,-15.68 37.536,-33.976 8.04,-41.816 -29.496,-7.84 -32.176,-32.664 -54.968,-33.976 -22.792,-1.312 -16.76,-5.88 -32.176,-5.224 -15.416,0.656 -25.472,7.84 -32.176,9.144 -6.704,1.304 -15.416,-1.304 -16.76,-7.84 -1.344,-6.536 -8.04,-16.336 -12.736,-14.4 -4.696,1.936 6.704,-11.76 0,-13.064 -6.704,-1.304 -13.312,9.144 -20.4,9.144 -7.088,0 -7.752,-26.784 -7.752,-26.784 0,0 40.216,-4.576 42.232,0 2.016,4.576 12.064,15.024 15.416,9.8 3.352,-5.224 -6.704,-18.944 -4.688,-22.216 2.016,-3.272 46.92,-32 48.264,-43.768 1.344,-11.768 25.472,-10.456 24.128,-24.8 -1.344,-14.344 -14.728,-10.48 -16.736,-18.288 -2.008,-7.808 -10.728,-16.336 -17.432,-8.496 -1.376,1.568 -3.208,2.688 -5.232,3.2 2.84,-3.16 4.8,-6.184 4.56,-7.76 -0.672,-4.576 19.44,-15.68 23.464,-20.904 4.024,-5.224 -25.472,-22.216 -36.864,-26.136 -5.768,-1.92 -11.808,-2.864 -17.88,-2.816 -1.392,-6.624 0.256,-13.52 4.504,-18.784 8,-6.536 15.384,11.104 21.416,11.104 6.032,0 27.48,0.656 32.176,7.2 4.696,6.544 13.408,15.68 13.408,21.56 0,5.88 8.04,45.032 26.808,41.144 18.768,-3.888 19.44,-15.68 28.152,-18.296 8.712,-2.616 17.432,7.2 34.184,3.264 -1.288,-2.68 -2.76,-5.272 -4.416,-7.744 C 418.936,101.16 403.992,86.816 387.312,74.688 Z M 277.288,95.032 c 0,-0.384 -0.088,-0.872 -0.128,-1.28 2.184,0.936 4.48,1.592 6.832,1.936 6.704,0.656 9.384,16.336 -4,26.136 -10.056,7.352 -5.368,15.584 -0.16,20.504 -3.032,4.488 -6.448,9.36 -11.2,8.896 -9.288,-1.904 -17.736,-6.712 -24.128,-13.72 -4,-5.88 8.04,-22.216 16.088,-27.44 8.048,-5.224 17.36,-5.264 16.696,-15.032 z"
         id="path6300" />
    </g>
  </g>
  <g
     id="gEarthquake"
     transform="matrix(0.19921875,0,0,0.19921875,926.04448,335.98885)"
     style="display:inline;opacity:0">
    <circle
       id="pathEarthquakeTopYellowBackground"
       r="256"
       cy="256"
       cx="256"
       style="display:inline;fill:#ffe562" />
    <path
       id="pathEarthquakeYellowCloudShadow"
       d="m 512,256 c 0,26.81 -4.12,52.66 -11.77,76.95 -3.22,10.22 -7.06,20.16 -11.48,29.78 -39.24,85.45 -124.17,145.58 -223.49,149.1 L 106.79,353.36 87.71,334.28 86.66,323.31 72.01,170.67 l 45.91,-4.4 -1.75,-18.22 50.01,-4.8 -1.78,-18.54 74.81,-7.17 73.48,70.95 c 0.97,0.89 1.84,1.89 2.57,2.98 l 35.4,35.13 c 0.91,-6.19 5.79,-11.14 11.96,-12.13 -0.17,-0.86 -0.26,-1.76 -0.32,-2.66 l -66.42,-66.18 c -3.55,-3.37 -5.77,-8.12 -5.77,-13.38 0,-9.2 6.8,-16.89 15.63,-18.3 -0.31,-1.58 -0.48,-3.21 -0.48,-4.89 0,-13.68 11.09,-24.77 24.77,-24.77 7.14,0 13.57,3.02 18.09,7.84 l 6.75,6.79 c 2.14,-0.95 4.51,-1.48 7.02,-1.48 5.04,0 9.56,2.13 12.65,5.52 l 11.59,11.64 c 3.36,1.07 6.3,3.08 8.53,5.72 l 116.63,116.57 c 0.47,6.31 0.71,12.68 0.71,19.11 z"
       style="display:inline;fill:#ffcb26"
       inkscape:connector-curvature="0" />
    <path
       id="pathEarthquakeCloud1White"
       d="m 301.698,184.202 h -1.565 c 0,-7.932 -6.661,-14.363 -14.877,-14.363 -2.863,0 -5.535,0.782 -7.804,2.135 -3.222,-8.046 -11.091,-13.731 -20.288,-13.731 -12.066,0 -21.847,9.781 -21.847,21.847 0,1.477 0.148,2.92 0.427,4.315 -7.784,1.237 -13.785,8.02 -13.785,16.138 v 0 c 0,8.988 7.353,16.341 16.341,16.341 h 63.398 c 8.988,0 16.341,-7.354 16.341,-16.341 v 0 c 0.001,-8.987 -7.353,-16.341 -16.341,-16.341 z"
       style="display:inline;fill:#ffffff"
       inkscape:connector-curvature="0" />
    <path
       id="pathEarthquakeCloud1Yellow"
       d="m 318.039,200.542 c 0,8.988 -7.354,16.342 -16.342,16.342 h -34.091 v -55.988 c 4.44,2.423 7.949,6.341 9.844,11.079 2.271,-1.355 4.942,-2.137 7.806,-2.137 8.215,0 14.876,6.431 14.876,14.365 h 1.565 c 4.496,0 8.58,1.839 11.543,4.799 2.96,2.964 4.799,7.048 4.799,11.54 z"
       style="display:inline;fill:#fff7d6"
       inkscape:connector-curvature="0" />
    <path
       id="pathEarthquakeCloud2White"
       d="m 420.629,214.296 h -1.376 c 0,-6.976 -5.858,-12.632 -13.084,-12.632 -2.518,0 -4.868,0.688 -6.864,1.878 -2.834,-7.077 -9.754,-12.076 -17.843,-12.076 -10.611,0 -19.214,8.602 -19.214,19.214 0,1.299 0.13,2.568 0.376,3.795 -6.846,1.088 -12.123,7.053 -12.123,14.193 v 0 c 0,7.904 6.467,14.372 14.371,14.372 h 55.757 c 7.904,0 14.372,-6.467 14.372,-14.372 v 0 C 435,220.764 428.533,214.296 420.629,214.296 Z"
       style="display:inline;fill:#ffffff"
       inkscape:connector-curvature="0" />
    <path
       id="pathEarthquakeCloud2Yellow"
       d="m 435,228.667 c 0,7.905 -6.467,14.372 -14.372,14.372 H 390.646 V 193.8 c 3.905,2.131 6.991,5.576 8.657,9.743 1.997,-1.191 4.347,-1.879 6.865,-1.879 7.225,0 13.083,5.656 13.083,12.634 h 1.376 c 3.954,0 7.546,1.617 10.151,4.221 2.605,2.605 4.222,6.197 4.222,10.148 z"
       style="display:inline;fill:#fff7d6"
       inkscape:connector-curvature="0" />
    <rect
       id="pathEarthquakeRedBldg"
       height="182.655"
       width="61.891998"
       style="display:inline;fill:#ff4d0b"
       transform="matrix(-0.9954,0.0955,-0.0955,-0.9954,333.2137,456.0786)"
       y="144.686"
       x="124.747" />
    <rect
       id="pathEarthquakeBlueBldgVerticalRect1"
       height="201.274"
       width="75.148003"
       style="display:inline;fill:#0058ad"
       transform="matrix(0.9954,-0.0955,0.0955,0.9954,-20.1682,21.203)"
       y="120.661"
       x="173.849" />
    <rect
       id="pathEarthquakeBlueBldgVerticalRect"
       height="37.578999"
       width="201.274"
       style="display:inline;fill:#003c7d"
       transform="matrix(-0.0955,-0.9954,0.9954,-0.0955,33.5855,469.5349)"
       y="200.71899"
       x="129.47701" />
    <rect
       id="pathEarthquakeBlueBldgWindow1"
       height="22.962999"
       width="18.242001"
       style="display:inline;fill:#00fcef"
       transform="matrix(0.9954,-0.0955,0.0955,0.9954,-13.6883,18.8994)"
       y="140.96899"
       x="181.476" />
    <rect
       id="pathEarthquakeBlueBldgWindow2"
       height="22.962999"
       width="18.242001"
       style="fill:#00e2cd"
       transform="matrix(0.9954,-0.0955,0.0955,0.9954,-13.3006,21.5791)"
       y="138.259"
       x="209.664" />
    <rect
       id="pathEarthquakeBlueBldgWindow4"
       height="22.962999"
       width="18.242001"
       style="fill:#00fcef"
       transform="matrix(0.9954,-0.0955,0.0955,0.9954,-16.8422,19.3543)"
       y="174.145"
       x="184.65199" />
    <rect
       id="pathEarthquakeBlueBldgWindow3"
       height="22.962999"
       width="18.242001"
       style="fill:#00e2cd"
       transform="matrix(0.9954,-0.0955,0.0955,0.9954,-16.4554,22.0349)"
       y="171.44501"
       x="212.849" />
    <rect
       id="pathEarthquakeBlueBldgWindow5"
       height="22.962999"
       width="18.242001"
       style="fill:#00fcef"
       transform="matrix(0.9954,-0.0955,0.0955,0.9954,-19.9961,19.8102)"
       y="207.32201"
       x="187.838" />
    <rect
       id="pathEarthquakeBlueBldgWindow6"
       height="22.962999"
       width="18.242001"
       style="fill:#00e2cd"
       transform="matrix(0.9954,-0.0955,0.0955,0.9954,-19.6093,22.4899)"
       y="204.621"
       x="216.02499" />
    <rect
       id="pathEarthquakeWhiteBldgLeft"
       height="164.345"
       width="79.498001"
       style="display:inline;fill:#ffffff"
       transform="matrix(0.9954,-0.0955,0.0955,0.9954,-23.2032,12.5427)"
       y="166.502"
       x="79.682999" />
    <rect
       id="pathEarthquakeWhiteBldgYellowRight"
       height="39.740002"
       width="164.345"
       style="display:inline;fill:#fff7d6"
       transform="matrix(-0.0955,-0.9954,0.9954,-0.0955,-93.1309,408.8991)"
       y="226.89101"
       x="57.035" />
    <g
       id="gPathEarthquakeWhiteBldgWindow1">
      <rect
         id="rect2278"
         height="21.804001"
         width="12.737"
         style="display:inline;fill:#ffcb26"
         transform="matrix(0.9954,-0.0955,0.0955,0.9954,-18.5773,9.8887)"
         y="188.119"
         x="87.650002" />
      <rect
         id="rect2280"
         height="21.804001"
         width="12.737"
         style="display:inline;fill:#ffcb26"
         transform="matrix(0.9954,-0.0955,0.0955,0.9954,-18.2962,11.8338)"
         y="186.15401"
         x="108.111" />
    </g>
    <g
       id="gPathEarthquakeWhiteBldgWindow2">
      <rect
         id="rect2284"
         height="6.3649998"
         width="21.802999"
         style="fill:#ffac1f"
         transform="matrix(-0.0955,-0.9954,0.9954,-0.0955,-66.9823,332.6419)"
         y="193.57001"
         x="106.735" />
      <rect
         id="rect2286"
         height="21.804001"
         width="12.737"
         style="fill:#ffac1f"
         transform="matrix(0.9954,-0.0955,0.0955,0.9954,-18.0159,13.78)"
         y="184.19901"
         x="128.58299" />
    </g>
    <g
       id="gPathEarthquakeWhiteBldgWindow3">
      <rect
         id="rect2290"
         height="21.804001"
         width="12.737"
         style="fill:#ffcb26"
         transform="matrix(0.9954,-0.0955,0.0955,0.9954,-21.5866,10.3229)"
         y="219.774"
         x="90.681" />
      <rect
         id="rect2292"
         height="21.804001"
         width="12.737"
         style="fill:#ffcb26"
         transform="matrix(0.9954,-0.0955,0.0955,0.9954,-21.3055,12.268)"
         y="217.80901"
         x="111.143" />
    </g>
    <g
       id="gPathEarthquakeWhiteBldgWindow4">
      <rect
         id="rect2296"
         height="6.3649998"
         width="21.802999"
         style="fill:#ffac1f"
         transform="matrix(-0.0955,-0.9954,0.9954,-0.0955,-95.1485,370.3439)"
         y="225.218"
         x="109.781" />
      <rect
         id="rect2298"
         height="21.804001"
         width="12.737"
         style="fill:#ffac1f"
         transform="matrix(0.9954,-0.0955,0.0955,0.9954,-21.0234,14.2142)"
         y="215.83501"
         x="131.61501" />
    </g>
    <g
       id="gPathEarthquakeWhiteBldgWindow5">
      <rect
         id="rect2302"
         height="21.804001"
         width="12.737"
         style="fill:#ffcb26"
         transform="matrix(0.9954,-0.0955,0.0955,0.9954,-24.5951,10.7571)"
         y="251.42"
         x="93.712997" />
      <rect
         id="rect2304"
         height="21.804001"
         width="12.737"
         style="fill:#ffcb26"
         transform="matrix(0.9954,-0.0955,0.0955,0.9954,-24.3138,12.7041)"
         y="249.455"
         x="114.194" />
    </g>
    <path
       id="gPathEarthquakeBottomYellowBackground"
       d="m 500.23,332.95 c -3.22,10.22 -7.06,20.16 -11.48,29.78 C 449.51,448.18 364.58,508.31 265.26,511.83 262.18,511.94 259.1,512 256,512 152.34,512 63.07,450.38 22.82,361.78 18.28,351.81 14.37,341.5 11.13,330.89 l 75.53,-7.58 201.67,-20.25 15.33,30.55 7.17,14.29 -26.83,53.83 37.53,68.81 26.8,-76.14 37.51,-26.6 12,-37.37 9.75,-30.38 z"
       style="display:inline;fill:#ffac1f"
       inkscape:connector-curvature="0" />
    <g
       id="gPathEarthquakeWhiteBldgWindow6"
       style="display:inline">
      <rect
         id="rect2308"
         height="6.3649998"
         width="21.802999"
         style="fill:#ffac1f"
         transform="matrix(-0.0955,-0.9954,0.9954,-0.0955,-123.3377,408.0251)"
         y="256.866"
         x="112.806" />
      <rect
         id="rect2310"
         height="21.804001"
         width="12.737"
         style="fill:#ffac1f"
         transform="matrix(0.9954,-0.0955,0.0955,0.9954,-24.0318,14.6483)"
         y="247.481"
         x="134.646" />
    </g>
    <path
       id="pathEarthquakeValley"
       d="m 500.23,332.95 c -3.22,10.22 -7.06,20.16 -11.48,29.78 -39.24,85.45 -124.17,145.58 -223.49,149.1 -3.08,0.11 -6.16,0.17 -9.26,0.17 V 306.31 l 32.33,-3.25 15.33,30.55 7.17,14.29 -26.83,53.83 37.53,68.81 26.8,-76.14 37.51,-26.6 12,-37.37 9.75,-30.38 z"
       style="display:inline;fill:#f08a17"
       inkscape:connector-curvature="0" />
    <path
       id="pathEarthquakeSurface1"
       d="m 303.66,333.61 -196.87,19.75 -83.97,8.42 C 18.28,351.81 14.37,341.5 11.13,330.89 l 75.53,-7.58 201.67,-20.25 z"
       style="fill:#ae600d"
       inkscape:connector-curvature="0" />
    <g
       id="gPathEarthquakeSurface"
       style="display:inline">
      <path
         id="pathEarthquakeSurface3"
         d="m 500.23,332.95 c -3.22,10.22 -7.06,20.16 -11.48,29.78 l -90.91,-32.3 9.75,-30.38 z"
         style="fill:#864907"
         inkscape:connector-curvature="0" />
      <polygon
         id="pathEarthquakeSurface2"
         points="303.66,333.61 256,338.39 256,306.31 288.33,303.06 "
         style="fill:#864907" />
    </g>
    <path
       id="pathEarthquakeCloud3White"
       d="m 380.535,113.724 h -1.775 c 0,-8.995 -7.553,-16.288 -16.871,-16.288 -3.246,0 -6.277,0.887 -8.85,2.421 -3.654,-9.125 -12.577,-15.571 -23.007,-15.571 -13.682,0 -24.774,11.092 -24.774,24.774 0,1.675 0.167,3.311 0.484,4.893 -8.828,1.402 -15.632,9.095 -15.632,18.301 v 0 c 0,10.192 8.339,18.531 18.531,18.531 h 71.894 c 10.192,0 18.531,-8.339 18.531,-18.531 v 0 c -10e-4,-10.192 -8.34,-18.53 -18.531,-18.53 z"
       style="display:inline;fill:#ffffff"
       inkscape:connector-curvature="0" />
    <path
       id="pathEarthquakeCloud3Yellow"
       d="m 399.065,132.253 c 0,10.193 -8.339,18.532 -18.532,18.532 h -38.659 v -63.49 c 5.035,2.748 9.014,7.19 11.163,12.563 2.576,-1.536 5.604,-2.423 8.852,-2.423 9.315,0 16.87,7.293 16.87,16.29 h 1.774 c 5.098,0 9.729,2.086 13.089,5.442 3.357,3.36 5.443,7.992 5.443,13.086 z"
       style="display:inline;fill:#fff7d6"
       inkscape:connector-curvature="0" />
  </g>
  <g
     id="grpWordSpace"
     style="display:inline;opacity:0">
    <path
       id="pathSpaceLetterS"
       class="letter"
       style="font-style:normal;font-variant:normal;font-weight:normal;font-stretch:normal;font-size:medium;line-height:1.25;font-family:'Times New Roman';font-variant-ligatures:normal;font-variant-caps:normal;font-variant-numeric:normal;font-feature-settings:normal;text-align:start;letter-spacing:0px;word-spacing:0px;writing-mode:lr-tb;text-anchor:start;display:inline;fill:#135eab;fill-opacity:1;stroke:none;stroke-width:2.35531688"
       d="m 460.90385,356.30354 v 18.77373 h -1.95607 q -0.95159,-5.40395 -3.43632,-8.60629 -2.43186,-3.20234 -6.97838,-5.08372 -4.54652,-1.88138 -9.41024,-1.88138 -5.49812,0 -9.09305,2.56188 -3.59492,2.52184 -3.59492,5.76421 0,2.48182 2.27326,4.52332 3.27772,3.00219 15.59563,8.00585 10.04463,4.08299 13.69243,6.2846 3.70065,2.16159 5.65672,5.12376 2.00892,2.96216 2.00892,6.20453 0,6.16451 -6.34398,10.6478 -6.29111,4.44324 -16.23002,4.44324 -3.11913,0 -5.8682,-0.36026 -1.63886,-0.20014 -6.81977,-1.44105 -5.12806,-1.28094 -6.50259,-1.28094 -1.32166,0 -2.11466,0.60044 -0.74013,0.60044 -1.1102,2.48181 h -1.95605 v -18.61361 h 1.95605 q 1.37453,5.84427 3.70066,8.76641 2.32613,2.88211 7.08412,4.80351 4.81085,1.92141 10.52044,1.92141 6.60832,0 10.41471,-2.64193 3.85926,-2.64194 3.85926,-6.24458 0,-2.00146 -1.48027,-4.04296 -1.4274,-2.04148 -4.49365,-3.80277 -2.0618,-1.20088 -11.26058,-5.08372 -9.19878,-3.92288 -13.11089,-6.24458 -3.85927,-2.32169 -5.8682,-5.12374 -2.00892,-2.80205 -2.00892,-6.16451 0,-5.84428 5.92105,-10.04736 5.92105,-4.2431 15.06696,-4.2431 5.70959,0 12.10644,2.12155 2.96052,1.00073 4.17646,1.00073 1.37453,0 2.22039,-0.60043 0.89873,-0.64047 1.42739,-2.52185 z"
       inkscape:connector-curvature="0" />
    <path
       id="pathSpaceLetterP"
       class="letter"
       style="font-style:normal;font-variant:normal;font-weight:normal;font-stretch:normal;font-size:medium;line-height:1.25;font-family:'Times New Roman';font-variant-ligatures:normal;font-variant-caps:normal;font-variant-numeric:normal;font-feature-settings:normal;text-align:start;letter-spacing:0px;word-spacing:0px;writing-mode:lr-tb;text-anchor:start;display:inline;fill:#135eab;fill-opacity:1;stroke:none;stroke-width:2.18815827"
       d="m 565.23078,387.26328 v 16.60512 q 0,5.38089 1.21656,6.68409 1.65103,1.84967 4.99655,1.84967 h 2.2593 v 1.55542 h -25.24344 v -1.55542 h 2.21586 q 3.73655,0 5.34414,-2.35413 0.86897,-1.3032 0.86897,-6.17963 v -36.82554 q 0,-5.38089 -1.17311,-6.68408 -1.69449,-1.84968 -5.04,-1.84968 h -2.21586 v -1.55542 h 21.5938 q 7.90757,0 12.46965,1.59746 4.56206,1.55541 7.69034,5.29682 3.12828,3.7414 3.12828,8.87007 0,6.97836 -4.77931,11.35033 -4.73587,4.37199 -13.42552,4.37199 -2.12897,0 -4.60552,-0.29427 -2.47655,-0.29426 -5.30069,-0.8828 z m 0,-2.39618 q 2.30276,0.42038 4.08414,0.63057 1.78138,0.2102 3.04138,0.2102 4.51862,0 7.77724,-3.36307 3.30207,-3.40511 3.30207,-8.786 0,-3.69937 -1.56413,-6.85224 -1.56414,-3.19491 -4.43173,-4.75033 -2.86759,-1.59745 -6.51724,-1.59745 -2.21586,0 -5.69173,0.79873 z"
       inkscape:connector-curvature="0" />
    <path
       id="pathSpaceLetterA"
       class="letter"
       d="m 718.22172,394.60414 c -6.88319,0 -13.76639,0 -20.64958,0 -1.58296,4.01472 -3.52352,7.90082 -4.76784,12.03937 -1.21398,3.28558 2.45016,4.83132 5.06529,4.77623 1.41888,-0.45714 1.2969,2.35165 -0.18992,1.58026 -5.22774,0 -10.45548,0 -15.68322,0 -0.71532,-2.40906 2.42221,-1.50257 3.68743,-2.61604 2.81707,-2.23266 3.95007,-5.91217 5.39056,-9.10427 6.15159,-14.82674 12.30319,-29.65348 18.45479,-44.48022 1.21029,-0.33416 1.73046,0.37051 1.97928,1.48365 6.27356,15.37981 12.45618,30.79859 18.78784,46.1535 1.25911,2.89946 3.00334,6.25973 6.43686,6.79904 1.48005,-0.6849 2.87776,1.61669 1.26679,1.76434 -6.80253,0 -13.60507,0 -20.40761,0 -0.71998,-2.43694 2.29128,-1.21356 3.6063,-2.17539 2.83744,-1.25109 1.64082,-4.75029 0.78297,-6.94831 -1.21621,-3.10557 -2.50976,-6.18027 -3.75994,-9.27216 z m -1.10132,-2.99843 c -3.01549,-7.40156 -6.03098,-14.80312 -9.04647,-22.20468 -3.09416,7.40156 -6.18833,14.80312 -9.28248,22.20468 6.10965,0 12.2193,0 18.32895,0 z"
       style="font-style:normal;font-variant:normal;font-weight:normal;font-stretch:normal;font-size:medium;line-height:1.25;font-family:'Times New Roman';font-variant-ligatures:normal;font-variant-caps:normal;font-variant-numeric:normal;font-feature-settings:normal;text-align:start;letter-spacing:0px;word-spacing:0px;writing-mode:lr-tb;text-anchor:start;display:inline;fill:#135eab;fill-opacity:1;stroke:none;stroke-width:2.04398584"
       inkscape:connector-curvature="0" />
    <path
       id="pathSpaceLetterC"
       class="letter"
       style="font-style:normal;font-variant:normal;font-weight:normal;font-stretch:normal;font-size:medium;line-height:1.25;font-family:'Times New Roman';font-variant-ligatures:normal;font-variant-caps:normal;font-variant-numeric:normal;font-feature-settings:normal;text-align:start;letter-spacing:0px;word-spacing:0px;writing-mode:lr-tb;text-anchor:start;display:inline;fill:#135eab;fill-opacity:1;stroke:none;stroke-width:1.88660777"
       d="m 861.39603,355.35619 1.06054,18.29601 h -1.06054 q -2.1211,-8.21535 -6.05538,-11.82693 -3.93428,-3.61158 -9.44228,-3.61158 -4.61851,0 -8.34752,2.73845 -3.72903,2.69876 -5.88433,8.65191 -2.12109,5.95316 -2.12109,14.80351 0,7.30252 2.01846,12.66036 2.01846,5.35783 6.05538,8.21534 4.07112,2.85752 9.27122,2.85752 4.51588,0 7.97121,-2.22251 3.45531,-2.2622 7.59487,-8.92973 l 1.06054,0.79376 q -3.48953,7.18346 -8.14225,10.51723 -4.65272,3.33376 -11.05021,3.33376 -11.52916,0 -17.85822,-9.92192 -4.72114,-7.3819 -4.72114,-17.38319 0,-8.05659 3.11321,-14.8035 3.11322,-6.7469 8.55279,-10.43785 5.47379,-3.73064 11.9397,-3.73064 5.02904,0 9.92124,2.8575 1.43687,0.87314 2.05267,0.87314 0.9237,0 1.60792,-0.75407 0.88949,-1.07156 1.26581,-2.97657 z"
       inkscape:connector-curvature="0" />
    <path
       id="pathSpaceLetterE"
       class="letter"
       style="font-style:normal;font-variant:normal;font-weight:normal;font-stretch:normal;font-size:medium;line-height:1.25;font-family:'Times New Roman';font-variant-ligatures:normal;font-variant-caps:normal;font-variant-numeric:normal;font-feature-settings:normal;text-align:start;letter-spacing:0px;word-spacing:0px;writing-mode:lr-tb;text-anchor:start;display:inline;fill:#135eab;fill-opacity:1;stroke:none;stroke-width:2.00314045"
       d="m 974.23986,360.97087 v 22.14954 h 11.03822 q 4.29679,0 5.74136,-1.44634 1.9261,-1.9009 2.1484,-6.69445 h 1.37053 v 19.50482 h -1.37053 q -0.51854,-4.09105 -1.03718,-5.24812 -0.66671,-1.44633 -2.18541,-2.27281 -1.51871,-0.82647 -4.66717,-0.82647 h -11.03822 v 18.47172 q 0,3.71915 0.29634,4.54561 0.29633,0.78516 1.03718,1.28104 0.74074,0.45456 2.8151,0.45456 h 8.51945 q 4.25968,0 6.18578,-0.66118 1.92619,-0.66118 3.70412,-2.60339 2.29656,-2.56208 4.70427,-7.72755 h 1.4816 l -4.33382,14.05009 h -38.70785 v -1.52898 h 1.77802 q 1.77792,0 3.37066,-0.95045 1.18535,-0.66118 1.59275,-1.98355 0.4445,-1.32235 0.4445,-5.41341 v -36.40623 q 0,-5.33076 -0.96305,-6.57048 -1.33342,-1.65295 -4.44486,-1.65295 h -1.77802 v -1.52899 h 38.70785 l 0.55566,12.27316 h -1.44467 q -0.77786,-4.42164 -1.7409,-6.07459 -0.92603,-1.65295 -2.77809,-2.52074 -1.48159,-0.61986 -5.22273,-0.61986 z"
       inkscape:connector-curvature="0" />
  </g>
  <g
     id="gPathBannerEpidemiology"
     style="display:inline">
    <path
       id="pathBannerLetterS"
       d="m 784,443.77778 h 119 v 26.44444 H 784 Z"
       style="opacity:1;fill:#d33a02;fill-opacity:1;stroke:none;stroke-width:1.03039002;stroke-linejoin:miter;stroke-miterlimit:4;stroke-dasharray:none;stroke-opacity:1"
       inkscape:connector-curvature="0" />
    <text
       transform="scale(0.93127385,1.073798)"
       id="pathWordEpidemiology"
       y="431.43311"
       x="844.56677"
       style="font-style:normal;font-variant:normal;font-weight:normal;font-stretch:normal;font-size:19.92434502px;line-height:1.25;font-family:Georgia;-inkscape-font-specification:'Georgia, Normal';font-variant-ligatures:normal;font-variant-caps:normal;font-variant-numeric:normal;font-feature-settings:normal;text-align:start;letter-spacing:0px;word-spacing:0px;writing-mode:lr-tb;text-anchor:start;fill:#ffffff;fill-opacity:1;stroke:#ffffff;stroke-width:0.93397516;stroke-opacity:1"
       xml:space="preserve"><tspan
         id="tspan1183"
         x="844.56677"
         y="431.43311"
         style="stroke-width:0.93397516">Epidemiology</tspan></text>
  </g>
  <g
     id="gPathBannerGisTech"
     style="display:inline">
    <path
       style="opacity:1;fill:#d33a02;fill-opacity:1;stroke:none;stroke-width:1.03039002;stroke-linejoin:miter;stroke-miterlimit:4;stroke-dasharray:none;stroke-opacity:1"
       d="m 520,443.77778 h 119 v 26.44444 H 520 Z"
       id="pathBannerLetterR"
       inkscape:connector-curvature="0" />
    <text
       xml:space="preserve"
       style="font-style:normal;font-variant:normal;font-weight:normal;font-stretch:normal;font-size:21.81250381px;line-height:1.25;font-family:Georgia;-inkscape-font-specification:'Georgia, Normal';font-variant-ligatures:normal;font-variant-caps:normal;font-variant-numeric:normal;font-feature-settings:normal;text-align:start;letter-spacing:0px;word-spacing:0px;writing-mode:lr-tb;text-anchor:start;fill:#ffffff;fill-opacity:1;stroke:#ffffff;stroke-width:1.02246106;stroke-opacity:1"
       x="522.36395"
       y="475.3277"
       id="pathWordGisTech"
       transform="scale(1.0238574,0.97669847)"><tspan
         id="tspan1167"
         x="522.36395"
         y="475.3277"
         style="stroke-width:1.02246106">GIS Tech</tspan></text>
  </g>
  <g
     id="gPathBannerEmergency"
     style="display:inline">
    <path
       style="opacity:1;fill:#d33a02;fill-opacity:1;stroke:none;stroke-width:1.03039002;stroke-linejoin:miter;stroke-miterlimit:4;stroke-dasharray:none;stroke-opacity:1"
       d="m 920,443.55556 h 119 V 470 H 920 Z"
       id="pathBannerLetterP"
       inkscape:connector-curvature="0" />
    <text
       transform="scale(1.0064755,0.99356617)"
       id="pathWordEmergency"
       y="464.73679"
       x="919.07599"
       style="font-style:normal;font-variant:normal;font-weight:normal;font-stretch:normal;font-size:21.45355797px;line-height:1.25;font-family:Georgia;-inkscape-font-specification:'Georgia, Normal';font-variant-ligatures:normal;font-variant-caps:normal;font-variant-numeric:normal;font-feature-settings:normal;text-align:start;letter-spacing:0px;word-spacing:0px;writing-mode:lr-tb;text-anchor:start;fill:#ffffff;fill-opacity:1;stroke:#ffffff;stroke-width:1.00567615;stroke-opacity:1"
       xml:space="preserve"><tspan
         style="stroke-width:1.00567615"
         y="464.73679"
         x="919.07599"
         id="tspan1225">Emergency</tspan></text>
  </g>
  <g
     id="gPathBannerAnalysis"
     style="display:inline">
    <path
       id="pathBannerLetterG"
       d="m 386,443.77778 h 119 v 26.44444 H 386 Z"
       style="opacity:1;fill:#d33a02;fill-opacity:1;stroke:none;stroke-width:1.03039002;stroke-linejoin:miter;stroke-miterlimit:4;stroke-dasharray:none;stroke-opacity:1"
       inkscape:connector-curvature="0" />
    <text
       transform="scale(1.0675032,0.93676537)"
       id="pathWordAnalysis"
       y="495.57806"
       x="377.40842"
       style="font-style:normal;font-variant:normal;font-weight:normal;font-stretch:normal;font-size:22.69632339px;line-height:1.25;font-family:Georgia;-inkscape-font-specification:'Georgia, Normal';font-variant-ligatures:normal;font-variant-caps:normal;font-variant-numeric:normal;font-feature-settings:normal;text-align:start;letter-spacing:0px;word-spacing:0px;writing-mode:lr-tb;text-anchor:start;fill:#ffffff;fill-opacity:1;stroke:#ffffff;stroke-width:1.06391466;stroke-opacity:1"
       xml:space="preserve"><tspan
         id="tspan1175"
         x="377.40842"
         y="495.57806"
         style="stroke-width:1.06391466">Analysis</tspan></text>
  </g>
  <path
     style="display:inline;opacity:1;fill:none;fill-opacity:1;stroke:#41c25e;stroke-width:3.4000001;stroke-linejoin:miter;stroke-miterlimit:4;stroke-dasharray:none;stroke-opacity:1"
     d="m 715.15765,361.86942 c 16.84468,0 30.5,13.65532 30.5,30.5 0,16.84468 -13.65532,30.5 -30.5,30.5 -16.84468,0 -30.5,-13.65532 -30.5,-30.5 0,-16.84468 13.65532,-30.5 30.5,-30.5"
     id="pathCircleBurstGreenCircle"
     inkscape:connector-curvature="0" />
  <g
     id="grpWordGrasp"
     style="display:inline;opacity:1"
     inkscape:groupmode="layer">
    <path
       style="font-style:normal;font-variant:normal;font-weight:normal;font-stretch:normal;font-size:medium;line-height:1.25;font-family:'Times New Roman';font-variant-ligatures:normal;font-variant-caps:normal;font-variant-numeric:normal;font-feature-settings:normal;text-align:start;letter-spacing:0px;word-spacing:0px;writing-mode:lr-tb;text-anchor:start;display:inline;fill:#135eab;fill-opacity:1;stroke:none;stroke-width:2.2878809"
       d="m 974.04752,387.39243 c 0.0441,6.36387 -0.0949,12.73177 0.0829,19.09275 -0.0567,2.45439 1.06987,5.22133 3.85301,5.75983 1.72024,0.49876 3.53092,0.32097 5.3011,0.355 0.12325,1.03134 0.11807,1.94004 -1.23698,1.55967 -8.76152,0 -17.52305,0 -26.28457,0 -0.12324,-1.03134 -0.11807,-1.94004 1.23698,-1.55967 2.78404,0.15468 6.37028,-0.37268 7.41975,-3.23789 0.88675,-3.92442 0.4105,-7.97701 0.53291,-11.96387 -0.0284,-10.72016 0.0577,-21.44205 -0.0449,-32.16109 0.0232,-2.46034 -0.63643,-5.52719 -3.53143,-6.2138 -1.80169,-0.62231 -3.73619,-0.43169 -5.61325,-0.46369 C 955.63978,357.52833 955.64496,356.61963 957,357 c 8.79579,0.047 17.59533,-0.10557 26.3882,0.10012 6.19077,0.24495 12.87992,1.58574 17.2434,6.12885 6.1129,5.68088 5.1397,16.26939 -1.47364,21.22953 -5.84213,4.56051 -13.9406,4.5723 -21.05588,3.60591 -1.35792,-0.18668 -2.70947,-0.41426 -4.05452,-0.67198 z m 0,-2.40273 c 4.73688,0.72781 10.1579,1.83831 14.38546,-1.05383 4.45592,-2.71991 6.22184,-8.1793 5.22247,-12.99041 -0.72093,-4.51408 -4.00985,-8.73112 -8.76184,-9.90534 -3.53515,-1.06226 -7.30517,-0.59224 -10.84609,0.17521 0,7.92479 0,15.84958 0,23.77437 z"
       id="pathGraspLetterP"
       class="letter"
       inkscape:connector-curvature="0" />
    <path
       style="font-style:normal;font-variant:normal;font-weight:normal;font-stretch:normal;font-size:medium;line-height:1.25;font-family:'Times New Roman';font-variant-ligatures:normal;font-variant-caps:normal;font-variant-numeric:normal;font-feature-settings:normal;text-align:start;letter-spacing:0px;word-spacing:0px;writing-mode:lr-tb;text-anchor:start;display:inline;fill:#135eab;fill-opacity:1;stroke:none;stroke-width:2.17268443"
       d="m 862.62492,356.07033 c 0,6.20669 0,12.41337 0,18.62006 -1.53051,0.36371 -2.08514,-0.38006 -2.0306,-1.93313 -0.87461,-4.74461 -3.60639,-9.31723 -8.10245,-11.40646 -4.99384,-2.54231 -11.72452,-3.2562 -16.35549,0.43656 -2.85083,1.97585 -4.16441,6.23409 -1.9872,9.16364 2.61022,3.32393 6.63619,5.064 10.2603,7.04581 5.91494,3.06018 12.31911,5.38481 17.55901,9.58482 4.11414,3.43452 6.00188,9.48704 3.8403,14.51055 -2.7274,6.35326 -9.70911,9.9088 -16.38632,10.20618 -4.77156,0.42284 -9.48785,-0.61067 -14.01817,-2.01547 -2.21141,-0.48645 -6.0396,-2.27736 -7.01334,0.8635 0.56755,1.30855 -1.89603,1.74022 -1.96099,0.80343 0,-6.01461 0,-12.02923 0,-18.04385 1.60794,-0.41362 2.09566,0.52264 2.14915,2.07177 0.93018,3.95759 2.7587,7.9973 6.43433,10.10298 5.12159,3.22603 11.7786,4.15333 17.52165,2.16622 3.84397,-1.37705 7.20602,-5.56759 5.7809,-9.7852 -1.47819,-4.57212 -6.17491,-6.67795 -10.13429,-8.68148 -5.79405,-3.00285 -11.93269,-5.52357 -17.13949,-9.52172 -3.64281,-2.80473 -5.95497,-7.50792 -5.0233,-12.13117 1.15969,-6.27391 7.19324,-10.57547 13.19414,-11.64607 5.47015,-1.08396 11.10715,0.0383 16.19726,2.12746 2.36676,1.43621 5.32332,0.0234 5.67553,-2.53843 0.51302,0 1.02605,0 1.53907,0 z"
       id="pathGraspLetterS"
       class="letter"
       inkscape:connector-curvature="0" />
    <path
       style="font-style:normal;font-variant:normal;font-weight:normal;font-stretch:normal;font-size:medium;line-height:1.25;font-family:'Times New Roman';font-variant-ligatures:normal;font-variant-caps:normal;font-variant-numeric:normal;font-feature-settings:normal;text-align:start;letter-spacing:0px;word-spacing:0px;writing-mode:lr-tb;text-anchor:start;display:inline;fill:#135eab;fill-opacity:1;stroke:none;stroke-width:2.04398584"
       d="m 718.22172,394.60414 c -6.88319,0 -13.76639,0 -20.64958,0 -1.58296,4.01472 -3.52352,7.90082 -4.76784,12.03937 -1.21398,3.28558 2.45016,4.83132 5.06529,4.77623 1.41888,-0.45714 1.2969,2.35165 -0.18992,1.58026 -5.22774,0 -10.45548,0 -15.68322,0 -0.71532,-2.40906 2.42221,-1.50257 3.68743,-2.61604 2.81707,-2.23266 3.95007,-5.91217 5.39056,-9.10427 6.15159,-14.82674 12.30319,-29.65348 18.45479,-44.48022 1.21029,-0.33416 1.73046,0.37051 1.97928,1.48365 6.27356,15.37981 12.45618,30.79859 18.78784,46.1535 1.25911,2.89946 3.00334,6.25973 6.43686,6.79904 1.48005,-0.6849 2.87776,1.61669 1.26679,1.76434 -6.80253,0 -13.60507,0 -20.40761,0 -0.71998,-2.43694 2.29128,-1.21356 3.6063,-2.17539 2.83744,-1.25109 1.64082,-4.75029 0.78297,-6.94831 -1.21621,-3.10557 -2.50976,-6.18027 -3.75994,-9.27216 z m -1.10132,-2.99843 c -3.01549,-7.40156 -6.03098,-14.80312 -9.04647,-22.20468 -3.09416,7.40156 -6.18833,14.80312 -9.28248,22.20468 6.10965,0 12.2193,0 18.32895,0 z"
       id="pathGraspLetterA"
       class="letter"
       inkscape:connector-curvature="0" />
    <path
       style="font-style:normal;font-variant:normal;font-weight:normal;font-stretch:normal;font-size:medium;line-height:1.25;font-family:'Times New Roman';font-variant-ligatures:normal;font-variant-caps:normal;font-variant-numeric:normal;font-feature-settings:normal;text-align:start;letter-spacing:0px;word-spacing:0px;writing-mode:lr-tb;text-anchor:start;display:inline;fill:#135eab;fill-opacity:1;stroke:none;stroke-width:2.23658442"
       d="m 608.00004,413.82471 c -5.45675,0 -10.9135,0 -16.37024,0 -6.91893,-8.91768 -13.83784,-17.83537 -20.75676,-26.75305 -2.13906,0.0588 -4.28486,0.16708 -6.42148,0 0.0575,6.53341 -0.12965,13.07404 0.12365,19.60178 -0.20733,3.09799 2.37574,5.62135 5.46546,5.56095 0.92263,0.31756 2.85025,-0.45122 3.22911,0.36215 0.47307,1.48941 -0.76506,1.28134 -1.84703,1.22817 -8.14225,0 -16.2845,0 -24.42675,0 -0.28134,-1.29923 0.15839,-1.88314 1.51121,-1.5613 2.87529,0.26053 6.64186,-0.88406 7.00653,-4.19417 0.54803,-4.98611 0.20315,-10.02217 0.30047,-15.03216 -0.0452,-9.58268 0.0951,-19.16946 -0.0792,-28.74928 0.21744,-2.93097 -1.67906,-5.83407 -4.79915,-6.00519 -1.20213,-0.34828 -2.99089,0.15946 -3.93994,-0.28261 -0.39761,-1.41456 0.45827,-1.58567 1.67913,-1.39474 9.08688,0.0679 18.18046,-0.16743 27.26132,0.18989 5.66861,0.26398 11.83472,1.50112 15.64812,6.0553 5.04423,5.22582 4.01994,14.45176 -1.69625,18.79599 -2.89629,2.35119 -6.53744,3.56624 -10.15183,4.3281 5.09932,6.51484 10.00499,13.18357 15.25614,19.57787 2.66871,3.26982 6.34024,5.80294 10.61631,6.37342 1.75989,0.32949 2.75217,-0.14925 2.39109,1.89888 z m -43.54848,-29.41146 c 6.0182,0.22974 12.91444,-0.21499 17.25861,-4.89982 5.05112,-5.19612 3.42514,-14.88233 -3.12471,-18.10558 -4.35383,-2.35238 -9.48021,-1.61912 -14.1339,-0.79383 0,7.93307 0,15.86615 0,23.79923 z"
       id="pathGraspLetterR"
       class="letter"
       inkscape:connector-curvature="0" />
    <path
       style="font-style:normal;font-variant:normal;font-weight:normal;font-stretch:normal;font-size:medium;line-height:1.25;font-family:'Times New Roman';font-variant-ligatures:normal;font-variant-caps:normal;font-variant-numeric:normal;font-feature-settings:normal;text-align:start;letter-spacing:0px;word-spacing:0px;writing-mode:lr-tb;text-anchor:start;display:inline;opacity:1;fill:#135eab;fill-opacity:1;stroke:none;stroke-width:2.18848801"
       d="m 465.47958,356.34692 c 0.52337,5.81042 1.04674,11.62084 1.57011,17.43126 -2.23847,0.69119 -2.06905,-2.06303 -3.01752,-3.41095 -2.59813,-5.82439 -8.23479,-10.08698 -14.58179,-10.87158 -7.5442,-1.15522 -16.09224,0.78109 -20.96455,7.04024 -6.70102,8.34963 -7.40898,20.42835 -3.45271,30.1379 2.47809,6.1789 7.43103,11.50795 13.9045,13.47762 6.42694,2.19032 13.66538,1.20023 19.63345,-1.87728 -0.0654,-6.34811 0.14606,-12.70551 -0.13739,-19.04649 0.11451,-2.9424 -2.65539,-4.95487 -5.40428,-4.88521 -1.51104,0.68403 -3.57388,-0.9299 -1.93591,-1.645 7.68138,0 15.36277,0 23.04415,0 0.45666,1.63923 -0.57261,1.73827 -1.96194,1.58073 -3.50601,-0.11359 -5.05554,3.44974 -4.8253,6.46927 -0.0696,6.15368 -0.0134,12.30906 -0.0315,18.46343 -10.07712,5.12268 -21.98884,6.11024 -32.93023,3.56177 -10.5467,-2.3934 -19.73814,-10.99197 -21.6397,-21.81266 -2.48751,-12.91689 5.58018,-26.30702 17.26453,-31.703 8.07656,-3.57337 17.54567,-3.85707 25.89402,-1.02387 2.46435,0.66648 7.40073,3.52198 7.81413,-0.93163 -0.22882,-1.5376 0.83904,-0.77602 1.75797,-0.95455 z"
       id="pathGraspLetterG"
       class="letter"
       inkscape:connector-curvature="0"
       inkscape:label="pathGraspLetterG" />
  </g>
</svg>
